ISO-10303-21;
HEADER;
FILE_DESCRIPTION(
  ('This file contains a STEP AP42 implementation'
    ,'as created by ZW3D STEP Interface translator.'
    ,'')
  ,'2;1'
  );
FILE_NAME(
  'BUQD00XX-ACC_B UQD04 Õ‚ö§C.stp'
  ,'26 627.163925',
  (''),
  ('ZWCAD Software Co.'),
  'Version 1.0',
  'ZW3D to STEP translator',
  ''
  );
FILE_SCHEMA(('AUTOMOTIVE_DESIGN { 1 0 10303 214 1 1 1 1 }'));
ENDSEC;

DATA;

/**File Base Unit**/
#1=(LENGTH_UNIT()NAMED_UNIT(*)SI_UNIT(.MILLI.,.METRE.));
#2=(NAMED_UNIT(*)PLANE_ANGLE_UNIT()SI_UNIT($,.RADIAN.));
#3=(NAMED_UNIT(*)SI_UNIT($,.STERADIAN.)SOLID_ANGLE_UNIT());
#4=UNCERTAINTY_MEASURE_WITH_UNIT(LENGTH_MEASURE(0.01),#1,'DISTANCE_ACCURACY_VALUE','Maximum Tolerance applied to model');
#5=(GEOMETRIC_REPRESENTATION_CONTEXT(3)GLOBAL_UNCERTAINTY_ASSIGNED_CONTEXT((#4))GLOBAL_UNIT_ASSIGNED_CONTEXT((#1,#2,#3))REPRESENTATION_CONTEXT('STEP 203','TOP_LEVEL_ASSEMBLY_PART'));

/**product_definition_shape**/
#6=APPLICATION_CONTEXT('mechanical parts and assemblies' );
#7=DESIGN_CONTEXT('NONE',#6,'design');
#8=MECHANICAL_CONTEXT('NONE',#6,'mechanical');
#9=PRODUCT('0','Part','',(#8));
#10=PRODUCT_DEFINITION_FORMATION_WITH_SPECIFIED_SOURCE('ANY','',#9,.NOT_KNOWN.);
#11=PRODUCT_DEFINITION('UNKNOWN','',#10,#7);
#12=PRODUCT_DEFINITION_SHAPE('NONE','NONE',#11);
#13=PRODUCT_RELATED_PRODUCT_CATEGORY('detail','',(#9));
/**geometry information**/
#14=CARTESIAN_POINT('',(0.,0.,0.));
#15=DIRECTION('',(0.,0.,1.));
#16=DIRECTION('',(1.,0.,0.));
#17=AXIS2_PLACEMENT_3D('',#14,#15,#16);
#18=SHAPE_REPRESENTATION('none',(#17),#5);
#19=SHAPE_DEFINITION_REPRESENTATION(#12,#18);
#20=CARTESIAN_POINT('',(3.5527136788005E-15,-26.617068370768,-1.3322676295502E-15));
#21=DIRECTION('',(-3.2297397080005E-16,-3.2297397080005E-16,1.));
#22=DIRECTION('',(0.,1.,-5.0625220223215E-17));
#23=AXIS2_PLACEMENT_3D('',#20,#22,#21);
#24=CYLINDRICAL_SURFACE('',#23,11.);
#25=CARTESIAN_POINT('',(0.,-17.844973989904,11.));
#26=VERTEX_POINT('',#25);
#27=CARTESIAN_POINT('',(6.2803698347351E-16,-17.844973989904,-1.7763568394003E-15));
#28=DIRECTION('',(-5.7094271224865E-17,-0.,1.));
#29=DIRECTION('',(0.,-1.,0.));
#30=AXIS2_PLACEMENT_3D('',#27,#29,#28);
#31=CIRCLE('',#30,11.);
#32=EDGE_CURVE('',#26,#26,#31,.T.);
#33=ORIENTED_EDGE('E1',*,*,#32,.T.);
#34=CARTESIAN_POINT('',(0.,-26.617068370768,11.));
#35=VERTEX_POINT('',#34);
#36=CARTESIAN_POINT('',(0.,-17.844973989904,11.));
#37=DIRECTION('',(0.,-1.,0.));
#38=VECTOR('',#37,8.7720943808638);
#39=LINE('',#36,#38);
#40=EDGE_CURVE('',#26,#35,#39,.T.);
#41=ORIENTED_EDGE('E2',*,*,#40,.T.);
#42=CARTESIAN_POINT('',(5.7371702197892E-31,-26.617068370768,1.7763568394003E-15));
#43=DIRECTION('',(-5.2156092907174E-32,-2.2837708489946E-16,1.));
#44=DIRECTION('',(2.2837708489946E-16,1.,2.2837708489946E-16));
#45=AXIS2_PLACEMENT_3D('',#42,#44,#43);
#46=CIRCLE('',#45,11.);
#47=EDGE_CURVE('',#35,#35,#46,.T.);
#48=ORIENTED_EDGE('E3',*,*,#47,.T.);
#49=ORIENTED_EDGE('E3',*,*,#40,.F.);
#50=EDGE_LOOP('',(#33,#41,#48,#49));
#51=FACE_OUTER_BOUND('',#50,.T.);
#52=CARTESIAN_POINT('',(-8.1,-21.344973989904,7.4424458345358));
#53=VERTEX_POINT('',#52);
#54=CARTESIAN_POINT('',(-8.1,-23.344973989904,7.4424458345358));
#55=VERTEX_POINT('',#54);
#56=CARTESIAN_POINT('',(-8.1,-21.344973989904,7.4424458345358));
#57=CARTESIAN_POINT('',(-7.9928266914201,-21.344973989904,7.5590881076269));
#58=CARTESIAN_POINT('',(-7.8845107396359,-21.361810934269,7.6718862711601));
#59=CARTESIAN_POINT('',(-7.6683673640804,-21.435722383963,7.8879332230031));
#60=CARTESIAN_POINT('',(-7.5601814104834,-21.4934395915,7.9913557795946));
#61=CARTESIAN_POINT('',(-7.3624154740237,-21.657599268013,8.1739187996539));
#62=CARTESIAN_POINT('',(-7.2718119159977,-21.765200963164,8.2539967326926));
#63=CARTESIAN_POINT('',(-7.1391147087548,-22.030757946253,8.369035295671));
#64=CARTESIAN_POINT('',(-7.1000675584628,-22.186613903162,8.4017284336657));
#65=CARTESIAN_POINT('',(-7.0999326240278,-22.50247969846,8.4018424611551));
#66=CARTESIAN_POINT('',(-7.13974609045,-22.66062667769,8.3684911983046));
#67=CARTESIAN_POINT('',(-7.2386747351395,-22.85834504055,8.282722551909));
#68=CARTESIAN_POINT('',(-7.2784136333077,-22.919192269167,8.2479113823225));
#69=CARTESIAN_POINT('',(-7.3647689261194,-23.026271324534,8.1708950460173));
#70=CARTESIAN_POINT('',(-7.4116439037124,-23.073230001237,8.1284766235511));
#71=CARTESIAN_POINT('',(-7.561108314137,-23.197241250955,7.9904963151302));
#72=CARTESIAN_POINT('',(-7.6676421422433,-23.253964881519,7.8886553524756));
#73=CARTESIAN_POINT('',(-7.8850377836423,-23.328329980246,7.6713622285863));
#74=CARTESIAN_POINT('',(-7.9940233942139,-23.344973989904,7.5577856738779));
#75=CARTESIAN_POINT('',(-8.1,-23.344973989904,7.4424458345358));
#76=B_SPLINE_CURVE_WITH_KNOTS('',3,(#56,#57,#58,#59,#60,#61,#62,#63,#64,#65,#66,#67,#68,#69,#70,#71,#72,#73,#74,#75),.UNSPECIFIED.,.F.,.U.,(4,2,2,2,2,2,2,2,2,4),(0.,0.00047394167752035,0.00094788335504069,0.001421825032561,0.0018957667100814,0.0023697083876017,0.0026066792263619,0.0028436500651221,0.0033175917426424,0.0037915334201628),.UNSPECIFIED.);
#77=EDGE_CURVE('',#53,#55,#76,.T.);
#78=ORIENTED_EDGE('E4',*,*,#77,.T.);
#79=CARTESIAN_POINT('',(-8.8741196746494,-23.344973989904,6.5));
#80=VERTEX_POINT('',#79);
#81=CARTESIAN_POINT('',(2.7178259642824E-13,-23.344973989904,-2.0161650127193E-13));
#82=DIRECTION('',(-0.73636363636364,1.1627062948801E-14,0.6765859849578));
#83=DIRECTION('',(-8.8752985306729E-15,-1.,7.29011998272E-15));
#84=AXIS2_PLACEMENT_3D('',#81,#83,#82);
#85=CIRCLE('',#84,11.);
#86=EDGE_CURVE('',#55,#80,#85,.T.);
#87=ORIENTED_EDGE('E5',*,*,#86,.T.);
#88=CARTESIAN_POINT('',(-8.8741196746494,-21.344973989904,6.5));
#89=VERTEX_POINT('',#88);
#90=CARTESIAN_POINT('',(-8.8741196746494,-23.344973989904,6.5));
#91=DIRECTION('',(0.,1.,0.));
#92=VECTOR('',#91,2.);
#93=LINE('',#90,#92);
#94=EDGE_CURVE('',#80,#89,#93,.T.);
#95=ORIENTED_EDGE('E6',*,*,#94,.T.);
#96=CARTESIAN_POINT('',(-3.0730973321624E-13,-21.344973989904,2.3803181647963E-13));
#97=DIRECTION('',(-0.80673815224086,6.4594794160011E-16,0.59090909090909));
#98=DIRECTION('',(4.7546242128602E-16,1.,-3.905421419314E-16));
#99=AXIS2_PLACEMENT_3D('',#96,#98,#97);
#100=CIRCLE('',#99,11.);
#101=EDGE_CURVE('',#89,#53,#100,.T.);
#102=ORIENTED_EDGE('E7',*,*,#101,.T.);
#103=EDGE_LOOP('',(#78,#87,#95,#102));
#104=FACE_BOUND('',#103,.T.);
#105=CARTESIAN_POINT('',(8.1,-23.344973989904,-7.4424458345358));
#106=VERTEX_POINT('',#105);
#107=CARTESIAN_POINT('',(8.8741196746494,-23.344973989904,-6.5));
#108=VERTEX_POINT('',#107);
#109=CARTESIAN_POINT('',(3.0730973321624E-13,-23.344973989905,-2.3891999489933E-13));
#110=DIRECTION('',(0.73636363636363,4.0048772379207E-14,-0.67658598495781));
#111=DIRECTION('',(3.0746569909829E-14,-1.,-2.5255058511564E-14));
#112=AXIS2_PLACEMENT_3D('',#109,#111,#110);
#113=CIRCLE('',#112,11.);
#114=EDGE_CURVE('',#106,#108,#113,.T.);
#115=ORIENTED_EDGE('E8',*,*,#114,.T.);
#116=CARTESIAN_POINT('',(8.8741196746494,-21.344973989904,-6.5));
#117=VERTEX_POINT('',#116);
#118=CARTESIAN_POINT('',(8.8741196746494,-23.344973989904,-6.5));
#119=DIRECTION('',(0.,1.,0.));
#120=VECTOR('',#119,2.);
#121=LINE('',#118,#120);
#122=EDGE_CURVE('',#108,#117,#121,.T.);
#123=ORIENTED_EDGE('E9',*,*,#122,.T.);
#124=CARTESIAN_POINT('',(8.1,-21.344973989904,-7.4424458345358));
#125=VERTEX_POINT('',#124);
#126=CARTESIAN_POINT('',(3.6415315207705E-13,-21.344973989905,-3.0020430585864E-13));
#127=DIRECTION('',(0.80673815224086,3.5527136788007E-14,-0.59090909090909));
#128=DIRECTION('',(-2.7576820434589E-14,1.,2.2651444232021E-14));
#129=AXIS2_PLACEMENT_3D('',#126,#128,#127);
#130=CIRCLE('',#129,11.);
#131=EDGE_CURVE('',#117,#125,#130,.T.);
#132=ORIENTED_EDGE('E10',*,*,#131,.T.);
#133=CARTESIAN_POINT('',(8.1,-21.344973989904,-7.4424458345358));
#134=CARTESIAN_POINT('',(7.9940233942139,-21.344973989904,-7.5577856738779));
#135=CARTESIAN_POINT('',(7.8850377836423,-21.361617999563,-7.6713622285863));
#136=CARTESIAN_POINT('',(7.6676421422433,-21.43598309829,-7.8886553524756));
#137=CARTESIAN_POINT('',(7.561108314137,-21.492706728854,-7.9904963151302));
#138=CARTESIAN_POINT('',(7.4116439037124,-21.616717978572,-8.1284766235511));
#139=CARTESIAN_POINT('',(7.3647689261194,-21.663676655274,-8.1708950460173));
#140=CARTESIAN_POINT('',(7.2784136333077,-21.770755710642,-8.2479113823225));
#141=CARTESIAN_POINT('',(7.2386747351395,-21.831602939259,-8.282722551909));
#142=CARTESIAN_POINT('',(7.13974609045,-22.029321302119,-8.3684911983046));
#143=CARTESIAN_POINT('',(7.0999326240278,-22.187468281349,-8.4018424611551));
#144=CARTESIAN_POINT('',(7.1000675584628,-22.503334076646,-8.4017284336657));
#145=CARTESIAN_POINT('',(7.1391147087548,-22.659190033556,-8.369035295671));
#146=CARTESIAN_POINT('',(7.2718119159977,-22.924747016645,-8.2539967326926));
#147=CARTESIAN_POINT('',(7.3624154740237,-23.032348711795,-8.1739187996539));
#148=CARTESIAN_POINT('',(7.5601814104834,-23.196508388309,-7.9913557795946));
#149=CARTESIAN_POINT('',(7.6683673640804,-23.254225595846,-7.8879332230031));
#150=CARTESIAN_POINT('',(7.8845107396359,-23.328137045539,-7.6718862711601));
#151=CARTESIAN_POINT('',(7.9928266914201,-23.344973989904,-7.5590881076269));
#152=CARTESIAN_POINT('',(8.1,-23.344973989904,-7.4424458345358));
#153=B_SPLINE_CURVE_WITH_KNOTS('',3,(#133,#134,#135,#136,#137,#138,#139,#140,#141,#142,#143,#144,#145,#146,#147,#148,#149,#150,#151,#152),.UNSPECIFIED.,.F.,.U.,(4,2,2,2,2,2,2,2,2,4),(0.,0.00047394167752035,0.00094788335504069,0.0011848541938009,0.001421825032561,0.0018957667100814,0.0023697083876017,0.0028436500651221,0.0033175917426424,0.0037915334201628),.UNSPECIFIED.);
#154=EDGE_CURVE('',#125,#106,#153,.T.);
#155=ORIENTED_EDGE('E11',*,*,#154,.T.);
#156=EDGE_LOOP('',(#115,#123,#132,#155));
#157=FACE_BOUND('',#156,.T.);
#158=CARTESIAN_POINT('',(-8.1,-21.344973989904,-7.4424458345358));
#159=VERTEX_POINT('',#158);
#160=CARTESIAN_POINT('',(-8.8741196746494,-21.344973989904,-6.5));
#161=VERTEX_POINT('',#160);
#162=CARTESIAN_POINT('',(-3.0730973321624E-13,-21.344973989904,-2.3891999489933E-13));
#163=DIRECTION('',(-0.73636363636363,6.4594794160011E-16,-0.67658598495781));
#164=DIRECTION('',(4.7546242128602E-16,1.,3.905421419314E-16));
#165=AXIS2_PLACEMENT_3D('',#162,#164,#163);
#166=CIRCLE('',#165,11.);
#167=EDGE_CURVE('',#159,#161,#166,.T.);
#168=ORIENTED_EDGE('E12',*,*,#167,.T.);
#169=CARTESIAN_POINT('',(-8.8741196746494,-23.344973989904,-6.5));
#170=VERTEX_POINT('',#169);
#171=CARTESIAN_POINT('',(-8.8741196746494,-21.344973989904,-6.5));
#172=DIRECTION('',(0.,-1.,0.));
#173=VECTOR('',#172,2.);
#174=LINE('',#171,#173);
#175=EDGE_CURVE('',#161,#170,#174,.T.);
#176=ORIENTED_EDGE('E13',*,*,#175,.T.);
#177=CARTESIAN_POINT('',(-8.1,-23.344973989904,-7.4424458345358));
#178=VERTEX_POINT('',#177);
#179=CARTESIAN_POINT('',(-3.0730973321624E-13,-23.344973989904,-2.4691360067663E-13));
#180=DIRECTION('',(-0.80673815224086,-1.6794646481603E-14,-0.59090909090909));
#181=DIRECTION('',(1.2995972848485E-14,-1.,1.0674818546125E-14));
#182=AXIS2_PLACEMENT_3D('',#179,#181,#180);
#183=CIRCLE('',#182,11.);
#184=EDGE_CURVE('',#170,#178,#183,.T.);
#185=ORIENTED_EDGE('E14',*,*,#184,.T.);
#186=CARTESIAN_POINT('',(-8.1,-23.344973989904,-7.4424458345358));
#187=CARTESIAN_POINT('',(-7.9936423351966,-23.344973989904,-7.5582004001801));
#188=CARTESIAN_POINT('',(-7.8857375790655,-23.328526908271,-7.6706535211));
#189=CARTESIAN_POINT('',(-7.6676008723686,-23.253993089086,-7.8887058170971));
#190=CARTESIAN_POINT('',(-7.5611603162947,-23.197269146676,-7.9904467153313));
#191=CARTESIAN_POINT('',(-7.361909949579,-23.031980770411,-8.1743908600915));
#192=CARTESIAN_POINT('',(-7.271464615658,-22.924047807149,-8.2542977373965));
#193=CARTESIAN_POINT('',(-7.1394733315898,-22.659911901559,-8.3687244752037));
#194=CARTESIAN_POINT('',(-7.0999230257076,-22.504337976781,-8.4018505722974));
#195=CARTESIAN_POINT('',(-7.1000772068859,-22.184645443994,-8.4017202801835));
#196=CARTESIAN_POINT('',(-7.1393877900535,-22.029849174936,-8.3688053960404));
#197=CARTESIAN_POINT('',(-7.272517770013,-21.764153341199,-8.2533779180651));
#198=CARTESIAN_POINT('',(-7.3629440290094,-21.657078510824,-8.1734394445498));
#199=CARTESIAN_POINT('',(-7.5604116615466,-21.493330801992,-7.9911346275731));
#200=CARTESIAN_POINT('',(-7.6686541804733,-21.435611124071,-7.887649404122));
#201=CARTESIAN_POINT('',(-7.8844310368243,-21.361851383159,-7.6719630660997));
#202=CARTESIAN_POINT('',(-7.9931155255699,-21.344973989904,-7.5587737544336));
#203=CARTESIAN_POINT('',(-8.1,-21.344973989904,-7.4424458345358));
#204=B_SPLINE_CURVE_WITH_KNOTS('',3,(#186,#187,#188,#189,#190,#191,#192,#193,#194,#195,#196,#197,#198,#199,#200,#201,#202,#203),.UNSPECIFIED.,.F.,.U.,(4,2,2,2,2,2,2,2,4),(0.,0.00047275423458342,0.00094550846916684,0.0014182627037503,0.0018910169383337,0.0023637711729171,0.0028365254075005,0.0033092796420839,0.0037820338766674),.UNSPECIFIED.);
#205=EDGE_CURVE('',#178,#159,#204,.T.);
#206=ORIENTED_EDGE('E15',*,*,#205,.T.);
#207=EDGE_LOOP('',(#168,#176,#185,#206));
#208=FACE_BOUND('',#207,.T.);
#209=CARTESIAN_POINT('',(8.1,-23.344973989904,7.4424458345358));
#210=VERTEX_POINT('',#209);
#211=CARTESIAN_POINT('',(8.1,-21.344973989904,7.4424458345358));
#212=VERTEX_POINT('',#211);
#213=CARTESIAN_POINT('',(8.1,-23.344973989904,7.4424458345358));
#214=CARTESIAN_POINT('',(7.9931155255699,-23.344973989904,7.5587737544336));
#215=CARTESIAN_POINT('',(7.8844310368243,-23.32809659665,7.6719630660997));
#216=CARTESIAN_POINT('',(7.6686541804733,-23.254336855737,7.887649404122));
#217=CARTESIAN_POINT('',(7.5604116615466,-23.196617177816,7.9911346275731));
#218=CARTESIAN_POINT('',(7.3629440290094,-23.032869468985,8.1734394445498));
#219=CARTESIAN_POINT('',(7.272517770013,-22.92579463861,8.2533779180651));
#220=CARTESIAN_POINT('',(7.1393877900535,-22.660098804873,8.3688053960404));
#221=CARTESIAN_POINT('',(7.1000772068859,-22.505302535815,8.4017202801835));
#222=CARTESIAN_POINT('',(7.0999230257076,-22.185610003028,8.4018505722974));
#223=CARTESIAN_POINT('',(7.1394733315898,-22.03003607825,8.3687244752037));
#224=CARTESIAN_POINT('',(7.271464615658,-21.76590017266,8.2542977373965));
#225=CARTESIAN_POINT('',(7.361909949579,-21.657967209398,8.1743908600915));
#226=CARTESIAN_POINT('',(7.5611603162947,-21.492678833132,7.9904467153313));
#227=CARTESIAN_POINT('',(7.6676008723686,-21.435954890723,7.8887058170971));
#228=CARTESIAN_POINT('',(7.8857375790655,-21.361421071537,7.6706535211));
#229=CARTESIAN_POINT('',(7.9936423351966,-21.344973989904,7.5582004001801));
#230=CARTESIAN_POINT('',(8.1,-21.344973989904,7.4424458345358));
#231=B_SPLINE_CURVE_WITH_KNOTS('',3,(#213,#214,#215,#216,#217,#218,#219,#220,#221,#222,#223,#224,#225,#226,#227,#228,#229,#230),.UNSPECIFIED.,.F.,.U.,(4,2,2,2,2,2,2,2,4),(0.,0.00047275423458342,0.00094550846916684,0.0014182627037503,0.0018910169383337,0.0023637711729171,0.0028365254075005,0.0033092796420839,0.0037820338766674),.UNSPECIFIED.);
#232=EDGE_CURVE('',#210,#212,#231,.T.);
#233=ORIENTED_EDGE('E16',*,*,#232,.T.);
#234=CARTESIAN_POINT('',(8.8741196746494,-21.344973989904,6.5));
#235=VERTEX_POINT('',#234);
#236=CARTESIAN_POINT('',(3.6415315207705E-13,-21.344973989905,3.0020430585864E-13));
#237=DIRECTION('',(0.73636363636363,3.5527136788007E-14,0.67658598495781));
#238=DIRECTION('',(-2.7576820434589E-14,1.,-2.2651444232021E-14));
#239=AXIS2_PLACEMENT_3D('',#236,#238,#237);
#240=CIRCLE('',#239,11.);
#241=EDGE_CURVE('',#212,#235,#240,.T.);
#242=ORIENTED_EDGE('E17',*,*,#241,.T.);
#243=CARTESIAN_POINT('',(8.8741196746494,-23.344973989904,6.5));
#244=VERTEX_POINT('',#243);
#245=CARTESIAN_POINT('',(8.8741196746494,-21.344973989904,6.5));
#246=DIRECTION('',(0.,-1.,0.));
#247=VECTOR('',#246,2.);
#248=LINE('',#245,#247);
#249=EDGE_CURVE('',#235,#244,#248,.T.);
#250=ORIENTED_EDGE('E18',*,*,#249,.T.);
#251=CARTESIAN_POINT('',(3.0730973321624E-13,-23.344973989905,2.3803181647963E-13));
#252=DIRECTION('',(0.80673815224086,4.0048772379207E-14,0.59090909090909));
#253=DIRECTION('',(3.0746569909829E-14,-1.,2.5255058511564E-14));
#254=AXIS2_PLACEMENT_3D('',#251,#253,#252);
#255=CIRCLE('',#254,11.);
#256=EDGE_CURVE('',#244,#210,#255,.T.);
#257=ORIENTED_EDGE('E19',*,*,#256,.T.);
#258=EDGE_LOOP('',(#233,#242,#250,#257));
#259=FACE_BOUND('',#258,.T.);
#260=ADVANCED_FACE('F1',(#51,#104,#157,#208,#259),#24,.T.);
#261=CARTESIAN_POINT('',(0.,-20.439420490439,0.));
#262=DIRECTION('',(-9.6018534137353E-17,-5.3281612038743E-17,-1.));
#263=DIRECTION('',(1.6630897959418E-16,-1.,5.3281612038743E-17));
#264=AXIS2_PLACEMENT_3D('',#261,#263,#262);
#265=CONICAL_SURFACE('',#264,0.,1.0471975511966);
#266=CARTESIAN_POINT('',(0.,-27.281021180336,11.85));
#267=VERTEX_POINT('',#266);
#268=CARTESIAN_POINT('',(7.2560322849481E-16,-27.281020596193,-11.849998988222));
#269=VERTEX_POINT('',#268);
#270=CARTESIAN_POINT('',(0.,-27.281021180336,0.));
#271=DIRECTION('',(0.,-2.9980706150215E-16,1.));
#272=DIRECTION('',(-9.0474784246715E-17,1.,-9.0474784246715E-17));
#273=AXIS2_PLACEMENT_3D('',#270,#272,#271);
#274=CIRCLE('',#273,11.85);
#275=EDGE_CURVE('',#267,#269,#274,.T.);
#276=ORIENTED_EDGE('E20',*,*,#275,.T.);
#277=CARTESIAN_POINT('',(-6.8274059052465E-16,-26.876875591283,-11.149999306106));
#278=VERTEX_POINT('',#277);
#279=CARTESIAN_POINT('',(0.,-27.281020165538,-11.849998242318));
#280=DIRECTION('',(0.,0.50000000000001,0.86602540378443));
#281=VECTOR('',#280,0.8082899497493);
#282=LINE('',#279,#281);
#283=EDGE_CURVE('',#269,#278,#282,.T.);
#284=ORIENTED_EDGE('E21',*,*,#283,.T.);
#285=CARTESIAN_POINT('',(0.,-26.876875991903,11.15));
#286=VERTEX_POINT('',#285);
#287=CARTESIAN_POINT('',(8.8817841970013E-16,-26.876875991903,-8.8817841970013E-16));
#288=DIRECTION('',(4.2591504618657E-16,0.,-1.));
#289=DIRECTION('',(9.6154815544715E-17,-1.,-9.6154815544715E-17));
#290=AXIS2_PLACEMENT_3D('',#287,#289,#288);
#291=CIRCLE('',#290,11.15);
#292=EDGE_CURVE('',#278,#286,#291,.T.);
#293=ORIENTED_EDGE('E117',*,*,#292,.T.);
#294=CARTESIAN_POINT('',(1.7763568394003E-15,-26.876875991903,-8.8817841970013E-16));
#295=DIRECTION('',(-1.5931451474442E-16,0.,1.));
#296=DIRECTION('',(-9.6154815544715E-17,-1.,9.6154815544715E-17));
#297=AXIS2_PLACEMENT_3D('',#294,#296,#295);
#298=CIRCLE('',#297,11.15);
#299=EDGE_CURVE('',#286,#278,#298,.T.);
#300=ORIENTED_EDGE('E108',*,*,#299,.T.);
#301=ORIENTED_EDGE('E108',*,*,#283,.F.);
#302=CARTESIAN_POINT('',(1.7763568394003E-15,-27.281021180336,-1.7763568394003E-15));
#303=DIRECTION('',(-1.4990353075108E-16,-2.9980706150215E-16,1.));
#304=DIRECTION('',(-9.0474784246715E-17,-1.,9.0474784246715E-17));
#305=AXIS2_PLACEMENT_3D('',#302,#304,#303);
#306=CIRCLE('',#305,11.85);
#307=EDGE_CURVE('',#267,#269,#306,.T.);
#308=ORIENTED_EDGE('E95',*,*,#307,.F.);
#309=EDGE_LOOP('',(#276,#284,#293,#300,#301,#308));
#310=FACE_OUTER_BOUND('',#309,.T.);
#311=ADVANCED_FACE('F2',(#310),#265,.T.);
#312=CARTESIAN_POINT('',(-1.7763568394003E-15,-29.194418639958,1.7763568394003E-15));
#313=DIRECTION('',(1.4802973661669E-16,2.9605947323338E-16,1.));
#314=DIRECTION('',(0.,1.,0.));
#315=AXIS2_PLACEMENT_3D('',#312,#314,#313);
#316=CYLINDRICAL_SURFACE('',#315,12.);
#317=CARTESIAN_POINT('',(0.,-27.540828801472,-12.));
#318=VERTEX_POINT('',#317);
#319=CARTESIAN_POINT('',(7.3478807948841E-16,-27.540828801472,12.));
#320=VERTEX_POINT('',#319);
#321=CARTESIAN_POINT('',(0.,-27.540828801472,0.));
#322=DIRECTION('',(0.,0.,-1.));
#323=DIRECTION('',(0.,-1.,0.));
#324=AXIS2_PLACEMENT_3D('',#321,#323,#322);
#325=CIRCLE('',#324,12.);
#326=EDGE_CURVE('',#318,#320,#325,.T.);
#327=ORIENTED_EDGE('E97',*,*,#326,.T.);
#328=CARTESIAN_POINT('',(-7.3478807948841E-16,-29.194418639958,12.));
#329=VERTEX_POINT('',#328);
#330=CARTESIAN_POINT('',(0.,-27.540828801472,12.));
#331=DIRECTION('',(0.,-1.,0.));
#332=VECTOR('',#331,1.6535898384862);
#333=LINE('',#330,#332);
#334=EDGE_CURVE('',#320,#329,#333,.T.);
#335=ORIENTED_EDGE('E22',*,*,#334,.T.);
#336=CARTESIAN_POINT('',(0.,-29.194418639958,-12.));
#337=VERTEX_POINT('',#336);
#338=CARTESIAN_POINT('',(-1.7763568394003E-15,-29.194418639958,3.5527136788005E-15));
#339=DIRECTION('',(2.5565056701952E-17,0.,1.));
#340=DIRECTION('',(-0.,1.,0.));
#341=AXIS2_PLACEMENT_3D('',#338,#340,#339);
#342=CIRCLE('',#341,12.);
#343=EDGE_CURVE('',#329,#337,#342,.T.);
#344=ORIENTED_EDGE('E119',*,*,#343,.T.);
#345=CARTESIAN_POINT('',(0.,-29.194418639958,0.));
#346=DIRECTION('',(0.,0.,-1.));
#347=DIRECTION('',(0.,1.,-0.));
#348=AXIS2_PLACEMENT_3D('',#345,#347,#346);
#349=CIRCLE('',#348,12.);
#350=EDGE_CURVE('',#337,#329,#349,.T.);
#351=ORIENTED_EDGE('E92',*,*,#350,.T.);
#352=ORIENTED_EDGE('E92',*,*,#334,.F.);
#353=CARTESIAN_POINT('',(1.7763568394003E-15,-27.540828801472,3.5527136788005E-15));
#354=DIRECTION('',(-2.5565056701952E-17,0.,1.));
#355=DIRECTION('',(-0.,-1.,0.));
#356=AXIS2_PLACEMENT_3D('',#353,#355,#354);
#357=CIRCLE('',#356,12.);
#358=EDGE_CURVE('',#320,#318,#357,.T.);
#359=ORIENTED_EDGE('E118',*,*,#358,.T.);
#360=EDGE_LOOP('',(#327,#335,#344,#351,#352,#359));
#361=FACE_OUTER_BOUND('',#360,.T.);
#362=ADVANCED_FACE('F3',(#361),#316,.T.);
#363=CARTESIAN_POINT('',(0.,-36.29582695099,4.9303806576313E-32));
#364=DIRECTION('',(-4.9929129001654E-18,-9.7728078423896E-18,1.));
#365=DIRECTION('',(8.6479788208525E-18,1.,9.7728078423896E-18));
#366=AXIS2_PLACEMENT_3D('',#363,#365,#364);
#367=CONICAL_SURFACE('',#366,0.,1.0471975511966);
#368=CARTESIAN_POINT('',(0.,-29.454226261093,-11.85));
#369=VERTEX_POINT('',#368);
#370=CARTESIAN_POINT('',(7.2560322849481E-16,-29.454226768492,11.849999121159));
#371=VERTEX_POINT('',#370);
#372=CARTESIAN_POINT('',(0.,-29.454226261093,0.));
#373=DIRECTION('',(0.,0.,-1.));
#374=DIRECTION('',(1.8094956849343E-16,-1.,-1.8094956849343E-16));
#375=AXIS2_PLACEMENT_3D('',#372,#374,#373);
#376=CIRCLE('',#375,11.85);
#377=EDGE_CURVE('',#369,#371,#376,.T.);
#378=ORIENTED_EDGE('E94',*,*,#377,.T.);
#379=CARTESIAN_POINT('',(-6.8274059052465E-16,-29.858372251471,11.14999861102));
#380=VERTEX_POINT('',#379);
#381=CARTESIAN_POINT('',(0.,-29.454227275891,11.849998242318));
#382=DIRECTION('',(0.,-0.5,-0.86602540378444));
#383=VECTOR('',#382,0.80828994974931);
#384=LINE('',#381,#383);
#385=EDGE_CURVE('',#371,#380,#384,.T.);
#386=ORIENTED_EDGE('E23',*,*,#385,.T.);
#387=CARTESIAN_POINT('',(0.,-29.858371449526,-11.15));
#388=VERTEX_POINT('',#387);
#389=CARTESIAN_POINT('',(2.6645352591004E-15,-29.858371449526,-2.6645352591004E-15));
#390=DIRECTION('',(-2.3897177211663E-16,0.,-1.));
#391=DIRECTION('',(-3.8461926217886E-16,-1.,3.8461926217886E-16));
#392=AXIS2_PLACEMENT_3D('',#389,#391,#390);
#393=CIRCLE('',#392,11.15);
#394=EDGE_CURVE('',#388,#380,#393,.T.);
#395=ORIENTED_EDGE('E98',*,*,#394,.F.);
#396=CARTESIAN_POINT('',(1.7763568394003E-15,-29.858371449526,1.7763568394003E-15));
#397=DIRECTION('',(-1.5931451474442E-16,0.,-1.));
#398=DIRECTION('',(-3.8461926217886E-16,1.,-3.8461926217886E-16));
#399=AXIS2_PLACEMENT_3D('',#396,#398,#397);
#400=CIRCLE('',#399,11.15);
#401=EDGE_CURVE('',#388,#380,#400,.T.);
#402=ORIENTED_EDGE('E24',*,*,#401,.T.);
#403=ORIENTED_EDGE('E24',*,*,#385,.F.);
#404=CARTESIAN_POINT('',(1.7763568394003E-15,-29.454226261093,1.7763568394003E-15));
#405=DIRECTION('',(-2.7438850836341E-17,0.,1.));
#406=DIRECTION('',(1.8094956849343E-16,-1.,1.8094956849343E-16));
#407=AXIS2_PLACEMENT_3D('',#404,#406,#405);
#408=CIRCLE('',#407,11.85);
#409=EDGE_CURVE('',#371,#369,#408,.T.);
#410=ORIENTED_EDGE('E120',*,*,#409,.T.);
#411=EDGE_LOOP('',(#378,#386,#395,#402,#403,#410));
#412=FACE_OUTER_BOUND('',#411,.T.);
#413=ADVANCED_FACE('F4',(#412),#367,.T.);
#414=CARTESIAN_POINT('',(0.,-32.194418639958,1.7763568394003E-15));
#415=DIRECTION('',(0.,0.,1.));
#416=DIRECTION('',(0.,1.,0.));
#417=AXIS2_PLACEMENT_3D('',#414,#416,#415);
#418=CYLINDRICAL_SURFACE('',#417,11.);
#419=CARTESIAN_POINT('',(0.,-32.194418639958,11.));
#420=VERTEX_POINT('',#419);
#421=CARTESIAN_POINT('',(5.7371702197892E-31,-32.194418639958,1.7763568394003E-15));
#422=DIRECTION('',(-5.2156092907174E-32,-2.2837708489946E-16,1.));
#423=DIRECTION('',(2.2837708489946E-16,1.,2.2837708489946E-16));
#424=AXIS2_PLACEMENT_3D('',#421,#423,#422);
#425=CIRCLE('',#424,11.);
#426=EDGE_CURVE('',#420,#420,#425,.T.);
#427=ORIENTED_EDGE('E25',*,*,#426,.T.);
#428=CARTESIAN_POINT('',(0.,-30.118179070661,11.));
#429=VERTEX_POINT('',#428);
#430=CARTESIAN_POINT('',(0.,-32.194418639958,11.));
#431=DIRECTION('',(0.,1.,0.));
#432=VECTOR('',#431,2.0762395692966);
#433=LINE('',#430,#432);
#434=EDGE_CURVE('',#420,#429,#433,.T.);
#435=ORIENTED_EDGE('E26',*,*,#434,.T.);
#436=CARTESIAN_POINT('',(0.,-30.118179070661,1.7763568394003E-15));
#437=DIRECTION('',(0.,-0.,1.));
#438=DIRECTION('',(-0.,-1.,0.));
#439=AXIS2_PLACEMENT_3D('',#436,#438,#437);
#440=CIRCLE('',#439,11.);
#441=EDGE_CURVE('',#429,#429,#440,.T.);
#442=ORIENTED_EDGE('E27',*,*,#441,.T.);
#443=ORIENTED_EDGE('E27',*,*,#434,.F.);
#444=EDGE_LOOP('',(#427,#435,#442,#443));
#445=FACE_OUTER_BOUND('',#444,.T.);
#446=ADVANCED_FACE('F5',(#445),#418,.T.);
#447=CARTESIAN_POINT('',(0.,-26.016770759629,0.));
#448=DIRECTION('',(-1.3340202142804E-16,-1.4092432855731E-16,-1.));
#449=DIRECTION('',(2.3105907894575E-16,-1.,1.4092432855731E-16));
#450=AXIS2_PLACEMENT_3D('',#447,#449,#448);
#451=CONICAL_SURFACE('',#450,0.,1.0471975511966);
#452=CARTESIAN_POINT('',(0.,-32.858371449526,11.85));
#453=VERTEX_POINT('',#452);
#454=CARTESIAN_POINT('',(7.2560322849481E-16,-32.858370865382,-11.849998988222));
#455=VERTEX_POINT('',#454);
#456=CARTESIAN_POINT('',(0.,-32.858371449526,0.));
#457=DIRECTION('',(0.,0.,1.));
#458=DIRECTION('',(1.8094956849343E-16,1.,1.8094956849343E-16));
#459=AXIS2_PLACEMENT_3D('',#456,#458,#457);
#460=CIRCLE('',#459,11.85);
#461=EDGE_CURVE('',#453,#455,#460,.T.);
#462=ORIENTED_EDGE('E28',*,*,#461,.T.);
#463=CARTESIAN_POINT('',(-6.8274059052465E-16,-32.454225860473,-11.149999306106));
#464=VERTEX_POINT('',#463);
#465=CARTESIAN_POINT('',(0.,-32.858370434728,-11.849998242318));
#466=DIRECTION('',(0.,0.5,0.86602540378444));
#467=VECTOR('',#466,0.80828994974929);
#468=LINE('',#465,#467);
#469=EDGE_CURVE('',#455,#464,#468,.T.);
#470=ORIENTED_EDGE('E29',*,*,#469,.T.);
#471=CARTESIAN_POINT('',(0.,-32.454226261093,11.15));
#472=VERTEX_POINT('',#471);
#473=CARTESIAN_POINT('',(2.6645352591004E-15,-32.454226261093,2.6645352591004E-15));
#474=DIRECTION('',(-3.6143645203136E-16,6.3725805897767E-16,-1.));
#475=DIRECTION('',(1.9230963108943E-16,-1.,1.9230963108943E-16));
#476=AXIS2_PLACEMENT_3D('',#473,#475,#474);
#477=CIRCLE('',#476,11.15);
#478=EDGE_CURVE('',#464,#472,#477,.T.);
#479=ORIENTED_EDGE('E121',*,*,#478,.T.);
#480=CARTESIAN_POINT('',(2.6645352591004E-15,-32.454226261093,-1.7763568394003E-15));
#481=DIRECTION('',(-2.3897177211663E-16,6.3725805897767E-16,1.));
#482=DIRECTION('',(1.9230963108943E-16,-1.,-1.9230963108943E-16));
#483=AXIS2_PLACEMENT_3D('',#480,#482,#481);
#484=CIRCLE('',#483,11.15);
#485=EDGE_CURVE('',#472,#464,#484,.T.);
#486=ORIENTED_EDGE('E101',*,*,#485,.T.);
#487=ORIENTED_EDGE('E101',*,*,#469,.F.);
#488=CARTESIAN_POINT('',(1.7763568394003E-15,-32.858371449526,-1.7763568394003E-15));
#489=DIRECTION('',(-1.4990353075108E-16,0.,1.));
#490=DIRECTION('',(1.8094956849343E-16,-1.,-1.8094956849343E-16));
#491=AXIS2_PLACEMENT_3D('',#488,#490,#489);
#492=CIRCLE('',#491,11.85);
#493=EDGE_CURVE('',#453,#455,#492,.T.);
#494=ORIENTED_EDGE('E104',*,*,#493,.F.);
#495=EDGE_LOOP('',(#462,#470,#479,#486,#487,#494));
#496=FACE_OUTER_BOUND('',#495,.T.);
#497=ADVANCED_FACE('F6',(#496),#451,.T.);
#498=CARTESIAN_POINT('',(-1.7763568394003E-15,-34.644973989904,-8.8817841970013E-16));
#499=DIRECTION('',(1.4802973661669E-16,-1.1842378929335E-15,1.));
#500=DIRECTION('',(0.,1.,1.7451821626583E-15));
#501=AXIS2_PLACEMENT_3D('',#498,#500,#499);
#502=CYLINDRICAL_SURFACE('',#501,12.);
#503=CARTESIAN_POINT('',(0.,-33.118179070661,-12.));
#504=VERTEX_POINT('',#503);
#505=CARTESIAN_POINT('',(7.3478807948841E-16,-33.118179070661,12.));
#506=VERTEX_POINT('',#505);
#507=CARTESIAN_POINT('',(-3.5527136788005E-15,-33.118179070661,3.5527136788005E-15));
#508=DIRECTION('',(2.9605947323338E-16,0.,-1.));
#509=DIRECTION('',(0.,-1.,0.));
#510=AXIS2_PLACEMENT_3D('',#507,#509,#508);
#511=CIRCLE('',#510,12.);
#512=EDGE_CURVE('',#504,#506,#511,.T.);
#513=ORIENTED_EDGE('E106',*,*,#512,.T.);
#514=CARTESIAN_POINT('',(-7.3478807948841E-16,-34.644973989904,12.));
#515=VERTEX_POINT('',#514);
#516=CARTESIAN_POINT('',(0.,-33.118179070661,12.));
#517=DIRECTION('',(0.,-1.,-1.1634547751055E-15));
#518=VECTOR('',#517,1.5267949192431);
#519=LINE('',#516,#518);
#520=EDGE_CURVE('',#506,#515,#519,.T.);
#521=ORIENTED_EDGE('E30',*,*,#520,.T.);
#522=CARTESIAN_POINT('',(0.,-34.644973989904,-12.));
#523=VERTEX_POINT('',#522);
#524=CARTESIAN_POINT('',(1.7763568394003E-15,-34.644973989904,0.));
#525=DIRECTION('',(-5.8451290826818E-16,5.9211894646675E-16,1.));
#526=DIRECTION('',(-0.,1.,0.));
#527=AXIS2_PLACEMENT_3D('',#524,#526,#525);
#528=CIRCLE('',#527,12.);
#529=EDGE_CURVE('',#515,#523,#528,.T.);
#530=ORIENTED_EDGE('E123',*,*,#529,.T.);
#531=CARTESIAN_POINT('',(3.5527136788005E-15,-34.644973989904,3.5527136788005E-15));
#532=DIRECTION('',(-2.9605947323338E-16,0.,-1.));
#533=DIRECTION('',(0.,1.,-0.));
#534=AXIS2_PLACEMENT_3D('',#531,#533,#532);
#535=CIRCLE('',#534,12.);
#536=EDGE_CURVE('',#523,#515,#535,.T.);
#537=ORIENTED_EDGE('E102',*,*,#536,.T.);
#538=ORIENTED_EDGE('E102',*,*,#520,.F.);
#539=CARTESIAN_POINT('',(-1.7763568394003E-15,-33.118179070661,0.));
#540=DIRECTION('',(5.8451290826818E-16,0.,1.));
#541=DIRECTION('',(-0.,-1.,0.));
#542=AXIS2_PLACEMENT_3D('',#539,#541,#540);
#543=CIRCLE('',#542,12.);
#544=EDGE_CURVE('',#506,#504,#543,.T.);
#545=ORIENTED_EDGE('E122',*,*,#544,.T.);
#546=EDGE_LOOP('',(#513,#521,#530,#537,#538,#545));
#547=FACE_OUTER_BOUND('',#546,.T.);
#548=ADVANCED_FACE('F7',(#547),#502,.T.);
#549=CARTESIAN_POINT('',(0.,-34.944973989904,0.));
#550=DIRECTION('',(0.,0.,-1.));
#551=DIRECTION('',(0.,-1.,0.));
#552=AXIS2_PLACEMENT_3D('',#549,#551,#550);
#553=PLANE('',#552);
#554=CARTESIAN_POINT('',(0.,-34.944973989904,-11.7));
#555=VERTEX_POINT('',#554);
#556=CARTESIAN_POINT('',(1.256073966947E-15,-34.944973989904,-3.5527136788005E-15));
#557=DIRECTION('',(-1.0735674931171E-16,2.1471349862342E-16,-1.));
#558=DIRECTION('',(2.1471349862342E-16,-1.,-2.1471349862342E-16));
#559=AXIS2_PLACEMENT_3D('',#556,#558,#557);
#560=CIRCLE('',#559,11.7);
#561=EDGE_CURVE('',#555,#555,#560,.T.);
#562=ORIENTED_EDGE('E31',*,*,#561,.T.);
#563=EDGE_LOOP('',(#562));
#564=FACE_OUTER_BOUND('',#563,.T.);
#565=CARTESIAN_POINT('',(0.,-34.944973989904,10.1));
#566=VERTEX_POINT('',#565);
#567=CARTESIAN_POINT('',(6.2484032096714E-31,-34.944973989904,1.7763568394003E-15));
#568=DIRECTION('',(-6.1865378313578E-32,2.4872751820733E-16,1.));
#569=DIRECTION('',(-2.4872751820733E-16,1.,-2.4872751820733E-16));
#570=AXIS2_PLACEMENT_3D('',#567,#569,#568);
#571=CIRCLE('',#570,10.1);
#572=EDGE_CURVE('',#566,#566,#571,.T.);
#573=ORIENTED_EDGE('E32',*,*,#572,.T.);
#574=EDGE_LOOP('',(#573));
#575=FACE_BOUND('',#574,.T.);
#576=ADVANCED_FACE('F8',(#564,#575),#553,.T.);
#577=CARTESIAN_POINT('',(0.,-34.944973989904,2.2204460492503E-15));
#578=DIRECTION('',(0.,7.0350765916842E-16,1.));
#579=DIRECTION('',(0.,1.,-5.1016487896442E-17));
#580=AXIS2_PLACEMENT_3D('',#577,#579,#578);
#581=CYLINDRICAL_SURFACE('',#580,10.1);
#582=ORIENTED_EDGE('',*,*,#572,.F.);
#583=CARTESIAN_POINT('',(0.,-26.240156622791,10.1));
#584=VERTEX_POINT('',#583);
#585=CARTESIAN_POINT('',(0.,-34.944973989904,10.1));
#586=DIRECTION('',(0.,1.,0.));
#587=VECTOR('',#586,8.7048173671132);
#588=LINE('',#585,#587);
#589=EDGE_CURVE('',#566,#584,#588,.T.);
#590=ORIENTED_EDGE('E33',*,*,#589,.T.);
#591=CARTESIAN_POINT('',(0.,-26.240156622791,1.7763568394003E-15));
#592=DIRECTION('',(-0.,-0.,1.));
#593=DIRECTION('',(-0.,1.,0.));
#594=AXIS2_PLACEMENT_3D('',#591,#593,#592);
#595=CIRCLE('',#594,10.1);
#596=EDGE_CURVE('',#584,#584,#595,.T.);
#597=ORIENTED_EDGE('E34',*,*,#596,.T.);
#598=ORIENTED_EDGE('E34',*,*,#589,.F.);
#599=EDGE_LOOP('',(#582,#590,#597,#598));
#600=FACE_OUTER_BOUND('',#599,.T.);
#601=ADVANCED_FACE('F9',(#600),#581,.F.);
#602=CARTESIAN_POINT('',(0.,-26.240156622791,0.));
#603=DIRECTION('',(0.,0.,-1.));
#604=DIRECTION('',(0.,-1.,0.));
#605=AXIS2_PLACEMENT_3D('',#602,#604,#603);
#606=PLANE('',#605);
#607=ORIENTED_EDGE('',*,*,#596,.F.);
#608=EDGE_LOOP('',(#607));
#609=FACE_OUTER_BOUND('',#608,.T.);
#610=CARTESIAN_POINT('',(2.8582929261258E-11,-26.240156622791,9.0499999999992));
#611=VERTEX_POINT('',#610);
#612=CARTESIAN_POINT('',(-1.7763568394003E-15,-26.240156622791,8.8817841970013E-16));
#613=DIRECTION('',(-4.6691864616565E-11,-3.9256504738127E-16,1.));
#614=DIRECTION('',(-1.7829532193695E-16,1.,4.0130152431624E-17));
#615=AXIS2_PLACEMENT_3D('',#612,#614,#613);
#616=CIRCLE('',#615,9.05);
#617=EDGE_CURVE('',#611,#611,#616,.T.);
#618=ORIENTED_EDGE('E39',*,*,#617,.T.);
#619=EDGE_LOOP('',(#618));
#620=FACE_BOUND('',#619,.T.);
#621=ADVANCED_FACE('F10',(#609,#620),#606,.T.);
#622=CARTESIAN_POINT('',(0.,-26.240156622792,-3.9968028886506E-15));
#623=DIRECTION('',(-2.0281716082E-17,0.,1.));
#624=DIRECTION('',(3.3881774701748E-16,1.,3.7037171095831E-16));
#625=AXIS2_PLACEMENT_3D('',#622,#624,#623);
#626=CYLINDRICAL_SURFACE('',#625,9.05);
#627=CARTESIAN_POINT('',(0.,-20.244973989904,9.05));
#628=VERTEX_POINT('',#627);
#629=CARTESIAN_POINT('',(1.743339017063E-31,-20.244973989904,0.));
#630=DIRECTION('',(-1.9263414553182E-32,1.3879270353006E-16,1.));
#631=DIRECTION('',(-1.3879270353006E-16,1.,-1.3879270353006E-16));
#632=AXIS2_PLACEMENT_3D('',#629,#631,#630);
#633=CIRCLE('',#632,9.05);
#634=EDGE_CURVE('',#628,#628,#633,.T.);
#635=ORIENTED_EDGE('E40',*,*,#634,.F.);
#636=CARTESIAN_POINT('',(0.,-20.244973989904,9.05));
#637=DIRECTION('',(4.7676589284961E-12,-1.,-1.3896346595159E-13));
#638=VECTOR('',#637,5.9951826328868);
#639=LINE('',#636,#638);
#640=EDGE_CURVE('',#628,#611,#639,.T.);
#641=ORIENTED_EDGE('E41',*,*,#640,.T.);
#642=ORIENTED_EDGE('E41',*,*,#617,.T.);
#643=ORIENTED_EDGE('E41',*,*,#640,.F.);
#644=EDGE_LOOP('',(#635,#641,#642,#643));
#645=FACE_OUTER_BOUND('',#644,.F.);
#646=ADVANCED_FACE('F11',(#645),#626,.F.);
#647=CARTESIAN_POINT('',(0.,-29.294973989904,0.));
#648=DIRECTION('',(5.9136731560694E-17,1.8946062900181E-17,1.));
#649=DIRECTION('',(-5.9136731560695E-17,1.,-1.8946062900181E-17));
#650=AXIS2_PLACEMENT_3D('',#647,#649,#648);
#651=CONICAL_SURFACE('',#650,0.,0.78539816339746);
#652=CARTESIAN_POINT('',(0.,-19.194973994953,10.099999994951));
#653=VERTEX_POINT('',#652);
#654=CARTESIAN_POINT('',(6.2803698347351E-16,-19.194973989904,1.7763568394003E-15));
#655=DIRECTION('',(-6.2181879551833E-17,-1.2436375910367E-16,1.));
#656=DIRECTION('',(1.2436375910367E-16,1.,1.2436375910367E-16));
#657=AXIS2_PLACEMENT_3D('',#654,#656,#655);
#658=CIRCLE('',#657,10.1);
#659=EDGE_CURVE('',#653,#653,#658,.T.);
#660=ORIENTED_EDGE('E44',*,*,#659,.T.);
#661=CARTESIAN_POINT('',(0.,-19.194974000002,10.099999989903));
#662=DIRECTION('',(0.,-0.70710678118654,-0.70710678118655));
#663=VECTOR('',#662,1.4849503827482);
#664=LINE('',#661,#663);
#665=EDGE_CURVE('',#653,#628,#664,.T.);
#666=ORIENTED_EDGE('E45',*,*,#665,.T.);
#667=ORIENTED_EDGE('E45',*,*,#634,.F.);
#668=ORIENTED_EDGE('E45',*,*,#665,.F.);
#669=EDGE_LOOP('',(#660,#666,#667,#668));
#670=FACE_OUTER_BOUND('',#669,.T.);
#671=ADVANCED_FACE('F12',(#670),#651,.F.);
#672=CARTESIAN_POINT('',(0.,-19.194973989904,3.1086244689504E-15));
#673=DIRECTION('',(0.,3.5175382958421E-16,1.));
#674=DIRECTION('',(0.,1.,1.9737298215558E-16));
#675=AXIS2_PLACEMENT_3D('',#672,#674,#673);
#676=CYLINDRICAL_SURFACE('',#675,10.1);
#677=ORIENTED_EDGE('',*,*,#659,.F.);
#678=CARTESIAN_POINT('',(0.,-16.944973989904,10.1));
#679=VERTEX_POINT('',#678);
#680=CARTESIAN_POINT('',(0.,-19.194973989904,10.1));
#681=DIRECTION('',(0.,1.,0.));
#682=VECTOR('',#681,2.25);
#683=LINE('',#680,#682);
#684=EDGE_CURVE('',#653,#679,#683,.T.);
#685=ORIENTED_EDGE('E46',*,*,#684,.T.);
#686=CARTESIAN_POINT('',(6.2803698347351E-16,-16.944973989904,1.7763568394003E-15));
#687=DIRECTION('',(-6.2181879551833E-17,1.2436375910367E-16,1.));
#688=DIRECTION('',(-1.2436375910367E-16,1.,-1.2436375910367E-16));
#689=AXIS2_PLACEMENT_3D('',#686,#688,#687);
#690=CIRCLE('',#689,10.1);
#691=EDGE_CURVE('',#679,#679,#690,.T.);
#692=ORIENTED_EDGE('E47',*,*,#691,.T.);
#693=ORIENTED_EDGE('E47',*,*,#684,.F.);
#694=EDGE_LOOP('',(#677,#685,#692,#693));
#695=FACE_OUTER_BOUND('',#694,.T.);
#696=ADVANCED_FACE('F13',(#695),#676,.F.);
#697=CARTESIAN_POINT('',(0.,-27.044973989905,0.));
#698=DIRECTION('',(4.2910239237581E-17,5.8081299811195E-17,1.));
#699=DIRECTION('',(-4.291023923758E-17,1.,-5.8081299811195E-17));
#700=AXIS2_PLACEMENT_3D('',#697,#699,#698);
#701=CONICAL_SURFACE('',#700,0.,0.78539816339743);
#702=CARTESIAN_POINT('',(0.,-16.144974020863,10.899999969041));
#703=VERTEX_POINT('',#702);
#704=CARTESIAN_POINT('',(0.,-16.144973989904,-1.7763568394003E-15));
#705=DIRECTION('',(-0.,-0.,1.));
#706=DIRECTION('',(-0.,1.,0.));
#707=AXIS2_PLACEMENT_3D('',#704,#706,#705);
#708=CIRCLE('',#707,10.9);
#709=EDGE_CURVE('',#703,#703,#708,.T.);
#710=ORIENTED_EDGE('E48',*,*,#709,.T.);
#711=CARTESIAN_POINT('',(0.,-16.144974051822,10.899999938083));
#712=DIRECTION('',(0.,-0.70710678118656,-0.70710678118653));
#713=VECTOR('',#712,1.1313707766139);
#714=LINE('',#711,#713);
#715=EDGE_CURVE('',#703,#679,#714,.T.);
#716=ORIENTED_EDGE('E49',*,*,#715,.T.);
#717=ORIENTED_EDGE('E49',*,*,#691,.F.);
#718=ORIENTED_EDGE('E49',*,*,#715,.F.);
#719=EDGE_LOOP('',(#710,#716,#717,#718));
#720=FACE_OUTER_BOUND('',#719,.T.);
#721=ADVANCED_FACE('F14',(#720),#701,.F.);
#722=CARTESIAN_POINT('',(0.,-16.144973989904,0.));
#723=DIRECTION('',(0.,3.2593703475234E-16,1.));
#724=DIRECTION('',(0.,1.,0.));
#725=AXIS2_PLACEMENT_3D('',#722,#724,#723);
#726=CYLINDRICAL_SURFACE('',#725,10.9);
#727=ORIENTED_EDGE('',*,*,#709,.F.);
#728=CARTESIAN_POINT('',(0.,-15.444973989904,10.9));
#729=VERTEX_POINT('',#728);
#730=CARTESIAN_POINT('',(0.,-16.144973989904,10.9));
#731=DIRECTION('',(0.,1.,0.));
#732=VECTOR('',#731,0.7);
#733=LINE('',#730,#732);
#734=EDGE_CURVE('',#703,#729,#733,.T.);
#735=ORIENTED_EDGE('E50',*,*,#734,.T.);
#736=CARTESIAN_POINT('',(0.,-15.444973989904,-1.7763568394003E-15));
#737=DIRECTION('',(-0.,-0.,1.));
#738=DIRECTION('',(-0.,1.,0.));
#739=AXIS2_PLACEMENT_3D('',#736,#738,#737);
#740=CIRCLE('',#739,10.9);
#741=EDGE_CURVE('',#729,#729,#740,.T.);
#742=ORIENTED_EDGE('E51',*,*,#741,.T.);
#743=ORIENTED_EDGE('E51',*,*,#734,.F.);
#744=EDGE_LOOP('',(#727,#735,#742,#743));
#745=FACE_OUTER_BOUND('',#744,.T.);
#746=ADVANCED_FACE('F15',(#745),#726,.F.);
#747=CARTESIAN_POINT('',(-4.4408920985006E-14,-15.244973989904,0.));
#748=DIRECTION('',(0.,0.,1.));
#749=DIRECTION('',(0.,1.,0.));
#750=AXIS2_PLACEMENT_3D('',#747,#749,#748);
#751=PLANE('',#750);
#752=CARTESIAN_POINT('',(0.,-15.244973989904,11.3));
#753=VERTEX_POINT('',#752);
#754=CARTESIAN_POINT('',(1.3962139915416E-31,-15.244973989904,0.));
#755=DIRECTION('',(-1.2355876031342E-32,1.111569882254E-16,1.));
#756=DIRECTION('',(-1.111569882254E-16,1.,-1.111569882254E-16));
#757=AXIS2_PLACEMENT_3D('',#754,#756,#755);
#758=CIRCLE('',#757,11.3);
#759=EDGE_CURVE('',#753,#753,#758,.T.);
#760=ORIENTED_EDGE('E52',*,*,#759,.T.);
#761=EDGE_LOOP('',(#760));
#762=FACE_OUTER_BOUND('',#761,.T.);
#763=CARTESIAN_POINT('',(0.,-15.244973989904,11.1));
#764=VERTEX_POINT('',#763);
#765=CARTESIAN_POINT('',(6.2803698347351E-16,-15.244973989904,-1.7763568394003E-15));
#766=DIRECTION('',(-5.6579908421037E-17,1.1315981684207E-16,1.));
#767=DIRECTION('',(-1.1315981684207E-16,-1.,1.1315981684207E-16));
#768=AXIS2_PLACEMENT_3D('',#765,#767,#766);
#769=CIRCLE('',#768,11.1);
#770=EDGE_CURVE('',#764,#764,#769,.T.);
#771=ORIENTED_EDGE('E53',*,*,#770,.T.);
#772=EDGE_LOOP('',(#771));
#773=FACE_BOUND('',#772,.T.);
#774=ADVANCED_FACE('F16',(#762,#773),#751,.T.);
#775=CARTESIAN_POINT('',(-1.7763568394003E-15,-17.344973989904,3.1086244689504E-15));
#776=DIRECTION('',(1.5446581212176E-16,0.,1.));
#777=DIRECTION('',(0.,1.,2.3373116307898E-16));
#778=AXIS2_PLACEMENT_3D('',#775,#777,#776);
#779=CYLINDRICAL_SURFACE('',#778,11.5);
#780=CARTESIAN_POINT('',(0.,-17.344973989904,11.5));
#781=VERTEX_POINT('',#780);
#782=CARTESIAN_POINT('',(6.2803698347351E-16,-17.344973989904,1.7763568394003E-15));
#783=DIRECTION('',(-5.4611911606392E-17,-0.,1.));
#784=DIRECTION('',(-0.,1.,0.));
#785=AXIS2_PLACEMENT_3D('',#782,#784,#783);
#786=CIRCLE('',#785,11.5);
#787=EDGE_CURVE('',#781,#781,#786,.T.);
#788=ORIENTED_EDGE('E54',*,*,#787,.T.);
#789=CARTESIAN_POINT('',(0.,-15.444973989904,11.5));
#790=VERTEX_POINT('',#789);
#791=CARTESIAN_POINT('',(0.,-17.344973989904,11.5));
#792=DIRECTION('',(0.,1.,0.));
#793=VECTOR('',#792,1.9);
#794=LINE('',#791,#793);
#795=EDGE_CURVE('',#781,#790,#794,.T.);
#796=ORIENTED_EDGE('E55',*,*,#795,.T.);
#797=CARTESIAN_POINT('',(-6.2803698347351E-16,-15.444973989904,1.7763568394003E-15));
#798=DIRECTION('',(5.4611911606392E-17,-0.,1.));
#799=DIRECTION('',(-0.,-1.,0.));
#800=AXIS2_PLACEMENT_3D('',#797,#799,#798);
#801=CIRCLE('',#800,11.5);
#802=EDGE_CURVE('',#790,#790,#801,.T.);
#803=ORIENTED_EDGE('E56',*,*,#802,.T.);
#804=ORIENTED_EDGE('E56',*,*,#795,.F.);
#805=EDGE_LOOP('',(#788,#796,#803,#804));
#806=FACE_OUTER_BOUND('',#805,.T.);
#807=ADVANCED_FACE('F17',(#806),#779,.T.);
#808=CARTESIAN_POINT('',(0.,-28.844973989904,0.));
#809=DIRECTION('',(0.,0.,1.));
#810=DIRECTION('',(-0.,1.,-0.));
#811=AXIS2_PLACEMENT_3D('',#808,#810,#809);
#812=CONICAL_SURFACE('',#811,0.,0.78539816339744);
#813=ORIENTED_EDGE('',*,*,#787,.F.);
#814=CARTESIAN_POINT('',(0.,-17.344974142636,11.499999847268));
#815=DIRECTION('',(0.,-0.70710678118655,-0.70710678118654));
#816=VECTOR('',#815,0.70710666894531);
#817=LINE('',#814,#816);
#818=EDGE_CURVE('',#781,#26,#817,.T.);
#819=ORIENTED_EDGE('E57',*,*,#818,.T.);
#820=ORIENTED_EDGE('E57',*,*,#32,.F.);
#821=ORIENTED_EDGE('E57',*,*,#818,.F.);
#822=EDGE_LOOP('',(#813,#819,#820,#821));
#823=FACE_OUTER_BOUND('',#822,.T.);
#824=ADVANCED_FACE('F18',(#823),#812,.T.);
#825=CARTESIAN_POINT('',(-4.540522271169E-13,-15.444973989904,1.3117529284289E-13));
#826=DIRECTION('',(3.9666202151203E-14,1.8122318911307E-16,1.));
#827=DIRECTION('',(2.4529526207811E-16,-1.,1.8122318911306E-16));
#828=AXIS2_PLACEMENT_3D('',#825,#827,#826);
#829=TOROIDAL_SURFACE('',#828,11.3,0.20000000000001);
#830=ORIENTED_EDGE('',*,*,#759,.F.);
#831=CARTESIAN_POINT('',(0.,-15.444973989904,11.3));
#832=DIRECTION('',(0.,0.99999999999076,4.2982055692418E-06));
#833=DIRECTION('',(1.,0.,0.));
#834=AXIS2_PLACEMENT_3D('',#831,#833,#832);
#835=CIRCLE('',#834,0.2);
#836=EDGE_CURVE('',#753,#790,#835,.T.);
#837=ORIENTED_EDGE('E58',*,*,#836,.T.);
#838=ORIENTED_EDGE('E58',*,*,#802,.F.);
#839=ORIENTED_EDGE('E58',*,*,#836,.F.);
#840=EDGE_LOOP('',(#830,#837,#838,#839));
#841=FACE_OUTER_BOUND('',#840,.T.);
#842=ADVANCED_FACE('F19',(#841),#829,.T.);
#843=CARTESIAN_POINT('',(7.8505845618261E-14,-15.444973989904,-1.8463387955574E-14));
#844=DIRECTION('',(-7.1580582151823E-15,-6.2909587689677E-17,1.));
#845=DIRECTION('',(8.5151485718186E-17,-1.,-6.2909587689676E-17));
#846=AXIS2_PLACEMENT_3D('',#843,#845,#844);
#847=TOROIDAL_SURFACE('',#846,11.1,0.2);
#848=ORIENTED_EDGE('',*,*,#741,.F.);
#849=CARTESIAN_POINT('',(0.,-15.444973989904,11.1));
#850=DIRECTION('',(0.,1.7763568394002E-14,-1.));
#851=DIRECTION('',(1.,0.,-0.));
#852=AXIS2_PLACEMENT_3D('',#849,#851,#850);
#853=CIRCLE('',#852,0.2);
#854=EDGE_CURVE('',#729,#764,#853,.T.);
#855=ORIENTED_EDGE('E59',*,*,#854,.T.);
#856=ORIENTED_EDGE('E59',*,*,#770,.F.);
#857=ORIENTED_EDGE('E59',*,*,#854,.F.);
#858=EDGE_LOOP('',(#848,#855,#856,#857));
#859=FACE_OUTER_BOUND('',#858,.T.);
#860=ADVANCED_FACE('F20',(#859),#847,.T.);
#861=CARTESIAN_POINT('',(12.453364540471,-22.344973989904,-6.5));
#862=DIRECTION('',(1.,0.,0.));
#863=DIRECTION('',(0.,0.,-1.));
#864=AXIS2_PLACEMENT_3D('',#861,#863,#862);
#865=PLANE('',#864);
#866=ORIENTED_EDGE('',*,*,#122,.F.);
#867=CARTESIAN_POINT('',(8.1,-23.344973989904,-6.5));
#868=VERTEX_POINT('',#867);
#869=CARTESIAN_POINT('',(8.8741196746494,-23.344973989904,-6.5));
#870=DIRECTION('',(-1.,0.,0.));
#871=VECTOR('',#870,0.77411967464942);
#872=LINE('',#869,#871);
#873=EDGE_CURVE('',#108,#868,#872,.T.);
#874=ORIENTED_EDGE('E60',*,*,#873,.T.);
#875=CARTESIAN_POINT('',(8.1,-21.344973989904,-6.5));
#876=VERTEX_POINT('',#875);
#877=CARTESIAN_POINT('',(8.1,-22.344973989904,-6.5));
#878=DIRECTION('',(0.,-1.,0.));
#879=DIRECTION('',(2.6803154833089E-16,2.6803154833089E-16,-1.));
#880=AXIS2_PLACEMENT_3D('',#877,#879,#878);
#881=CIRCLE('',#880,1.);
#882=EDGE_CURVE('',#868,#876,#881,.T.);
#883=ORIENTED_EDGE('E61',*,*,#882,.T.);
#884=CARTESIAN_POINT('',(8.1,-21.344973989904,-6.5));
#885=DIRECTION('',(1.,0.,0.));
#886=VECTOR('',#885,0.77411967464942);
#887=LINE('',#884,#886);
#888=EDGE_CURVE('',#876,#117,#887,.T.);
#889=ORIENTED_EDGE('E62',*,*,#888,.T.);
#890=EDGE_LOOP('',(#866,#874,#883,#889));
#891=FACE_OUTER_BOUND('',#890,.T.);
#892=CARTESIAN_POINT('',(8.85,-22.344973989904,-6.5));
#893=VERTEX_POINT('',#892);
#894=CARTESIAN_POINT('',(8.1,-22.344973989904,-6.5));
#895=DIRECTION('',(1.,-0.,-0.));
#896=DIRECTION('',(0.,-0.,1.));
#897=AXIS2_PLACEMENT_3D('',#894,#896,#895);
#898=CIRCLE('',#897,0.75);
#899=EDGE_CURVE('',#893,#893,#898,.T.);
#900=ORIENTED_EDGE('E63',*,*,#899,.T.);
#901=EDGE_LOOP('',(#900));
#902=FACE_BOUND('',#901,.T.);
#903=ADVANCED_FACE('F21',(#891,#902),#865,.T.);
#904=CARTESIAN_POINT('',(8.1,-23.344973989904,-16.5));
#905=DIRECTION('',(1.,0.,0.));
#906=DIRECTION('',(-0.,1.,0.));
#907=AXIS2_PLACEMENT_3D('',#904,#906,#905);
#908=PLANE('',#907);
#909=ORIENTED_EDGE('',*,*,#114,.F.);
#910=CARTESIAN_POINT('',(8.1,-23.344973989904,-7.4424458345358));
#911=DIRECTION('',(0.,0.,1.));
#912=VECTOR('',#911,0.94244583453584);
#913=LINE('',#910,#912);
#914=EDGE_CURVE('',#106,#868,#913,.T.);
#915=ORIENTED_EDGE('E64',*,*,#914,.T.);
#916=ORIENTED_EDGE('E64',*,*,#873,.F.);
#917=EDGE_LOOP('',(#909,#915,#916));
#918=FACE_OUTER_BOUND('',#917,.T.);
#919=ADVANCED_FACE('F22',(#918),#908,.T.);
#920=CARTESIAN_POINT('',(8.1000000000001,-22.344973989904,-8.4572911262018));
#921=DIRECTION('',(-6.4194871640666E-10,1.,7.1054273576011E-15));
#922=DIRECTION('',(4.5377941370617E-15,0.,1.));
#923=AXIS2_PLACEMENT_3D('',#920,#922,#921);
#924=CYLINDRICAL_SURFACE('',#923,0.99999999999999);
#925=ORIENTED_EDGE('',*,*,#154,.F.);
#926=CARTESIAN_POINT('',(8.1,-21.344973989904,-7.4424458345358));
#927=DIRECTION('',(0.,0.,1.));
#928=VECTOR('',#927,0.94244583453584);
#929=LINE('',#926,#928);
#930=EDGE_CURVE('',#125,#876,#929,.T.);
#931=ORIENTED_EDGE('E65',*,*,#930,.T.);
#932=ORIENTED_EDGE('E65',*,*,#882,.F.);
#933=ORIENTED_EDGE('E65',*,*,#914,.F.);
#934=EDGE_LOOP('',(#925,#931,#932,#933));
#935=FACE_OUTER_BOUND('',#934,.T.);
#936=ADVANCED_FACE('F23',(#935),#924,.F.);
#937=CARTESIAN_POINT('',(12.453364540471,-21.344973989904,-16.5));
#938=DIRECTION('',(0.,0.,1.));
#939=DIRECTION('',(0.,-1.,0.));
#940=AXIS2_PLACEMENT_3D('',#937,#939,#938);
#941=PLANE('',#940);
#942=ORIENTED_EDGE('',*,*,#131,.F.);
#943=ORIENTED_EDGE('',*,*,#888,.F.);
#944=ORIENTED_EDGE('',*,*,#930,.F.);
#945=EDGE_LOOP('',(#942,#943,#944));
#946=FACE_OUTER_BOUND('',#945,.T.);
#947=ADVANCED_FACE('F24',(#946),#941,.T.);
#948=CARTESIAN_POINT('',(-12.453364540471,-22.344973989904,-6.5));
#949=DIRECTION('',(-1.,0.,0.));
#950=DIRECTION('',(0.,0.,-1.));
#951=AXIS2_PLACEMENT_3D('',#948,#950,#949);
#952=PLANE('',#951);
#953=CARTESIAN_POINT('',(-8.1,-21.344973989904,-6.5));
#954=VERTEX_POINT('',#953);
#955=CARTESIAN_POINT('',(-8.8741196746494,-21.344973989904,-6.5));
#956=DIRECTION('',(1.,0.,0.));
#957=VECTOR('',#956,0.77411967464942);
#958=LINE('',#955,#957);
#959=EDGE_CURVE('',#161,#954,#958,.T.);
#960=ORIENTED_EDGE('E66',*,*,#959,.T.);
#961=CARTESIAN_POINT('',(-8.1,-23.344973989904,-6.5));
#962=VERTEX_POINT('',#961);
#963=CARTESIAN_POINT('',(-8.1,-22.344973989904,-6.5));
#964=DIRECTION('',(-1.7763568394003E-15,1.,0.));
#965=DIRECTION('',(-2.6803154833089E-16,-2.6803154833089E-16,-1.));
#966=AXIS2_PLACEMENT_3D('',#963,#965,#964);
#967=CIRCLE('',#966,1.);
#968=EDGE_CURVE('',#954,#962,#967,.T.);
#969=ORIENTED_EDGE('E67',*,*,#968,.T.);
#970=CARTESIAN_POINT('',(-8.1,-23.344973989904,-6.5));
#971=DIRECTION('',(-1.,0.,0.));
#972=VECTOR('',#971,0.77411967464942);
#973=LINE('',#970,#972);
#974=EDGE_CURVE('',#962,#170,#973,.T.);
#975=ORIENTED_EDGE('E68',*,*,#974,.T.);
#976=ORIENTED_EDGE('E68',*,*,#175,.F.);
#977=EDGE_LOOP('',(#960,#969,#975,#976));
#978=FACE_OUTER_BOUND('',#977,.T.);
#979=CARTESIAN_POINT('',(-8.85,-22.344973989904,-6.5));
#980=VERTEX_POINT('',#979);
#981=CARTESIAN_POINT('',(-7.35,-22.344973989904,-6.5));
#982=VERTEX_POINT('',#981);
#983=CARTESIAN_POINT('',(-8.1,-22.344973989904,-6.5));
#984=DIRECTION('',(-1.,-4.736951571734E-15,0.));
#985=DIRECTION('',(-0.,0.,1.));
#986=AXIS2_PLACEMENT_3D('',#983,#985,#984);
#987=CIRCLE('',#986,0.75);
#988=EDGE_CURVE('',#980,#982,#987,.T.);
#989=ORIENTED_EDGE('E69',*,*,#988,.T.);
#990=CARTESIAN_POINT('',(-8.1,-22.344973989904,-6.5));
#991=DIRECTION('',(1.,-3.7895612573872E-14,0.));
#992=DIRECTION('',(0.,-0.,1.));
#993=AXIS2_PLACEMENT_3D('',#990,#992,#991);
#994=CIRCLE('',#993,0.75);
#995=EDGE_CURVE('',#982,#980,#994,.T.);
#996=ORIENTED_EDGE('E125',*,*,#995,.T.);
#997=EDGE_LOOP('',(#989,#996));
#998=FACE_BOUND('',#997,.T.);
#999=ADVANCED_FACE('F25',(#978,#998),#952,.T.);
#1000=CARTESIAN_POINT('',(-12.453364540471,-21.344973989904,-16.5));
#1001=DIRECTION('',(0.,0.,1.));
#1002=DIRECTION('',(0.,-1.,0.));
#1003=AXIS2_PLACEMENT_3D('',#1000,#1002,#1001);
#1004=PLANE('',#1003);
#1005=ORIENTED_EDGE('',*,*,#167,.F.);
#1006=CARTESIAN_POINT('',(-8.1,-21.344973989904,-7.4424458345358));
#1007=DIRECTION('',(0.,0.,1.));
#1008=VECTOR('',#1007,0.94244583453584);
#1009=LINE('',#1006,#1008);
#1010=EDGE_CURVE('',#159,#954,#1009,.T.);
#1011=ORIENTED_EDGE('E70',*,*,#1010,.T.);
#1012=ORIENTED_EDGE('E70',*,*,#959,.F.);
#1013=EDGE_LOOP('',(#1005,#1011,#1012));
#1014=FACE_OUTER_BOUND('',#1013,.T.);
#1015=ADVANCED_FACE('F26',(#1014),#1004,.T.);
#1016=CARTESIAN_POINT('',(-8.1000000000131,-22.344973989886,-8.504786354282));
#1017=DIRECTION('',(7.5608674875173E-10,-1.,0.));
#1018=DIRECTION('',(-3.5442317045029E-15,0.,1.));
#1019=AXIS2_PLACEMENT_3D('',#1016,#1018,#1017);
#1020=CYLINDRICAL_SURFACE('',#1019,1.0000000000224);
#1021=ORIENTED_EDGE('',*,*,#205,.F.);
#1022=CARTESIAN_POINT('',(-8.1,-23.344973989904,-7.4424458345358));
#1023=DIRECTION('',(0.,0.,1.));
#1024=VECTOR('',#1023,0.94244583453584);
#1025=LINE('',#1022,#1024);
#1026=EDGE_CURVE('',#178,#962,#1025,.T.);
#1027=ORIENTED_EDGE('E71',*,*,#1026,.T.);
#1028=ORIENTED_EDGE('E71',*,*,#968,.F.);
#1029=ORIENTED_EDGE('E71',*,*,#1010,.F.);
#1030=EDGE_LOOP('',(#1021,#1027,#1028,#1029));
#1031=FACE_OUTER_BOUND('',#1030,.T.);
#1032=ADVANCED_FACE('F27',(#1031),#1020,.F.);
#1033=CARTESIAN_POINT('',(-8.1,-23.344973989904,-16.5));
#1034=DIRECTION('',(1.,0.,0.));
#1035=DIRECTION('',(-0.,1.,0.));
#1036=AXIS2_PLACEMENT_3D('',#1033,#1035,#1034);
#1037=PLANE('',#1036);
#1038=ORIENTED_EDGE('',*,*,#184,.F.);
#1039=ORIENTED_EDGE('',*,*,#974,.F.);
#1040=ORIENTED_EDGE('',*,*,#1026,.F.);
#1041=EDGE_LOOP('',(#1038,#1039,#1040));
#1042=FACE_OUTER_BOUND('',#1041,.T.);
#1043=ADVANCED_FACE('F28',(#1042),#1037,.T.);
#1044=CARTESIAN_POINT('',(8.1,-22.344973989904,-5.5));
#1045=DIRECTION('',(1.,0.,0.));
#1046=DIRECTION('',(0.,0.,-1.));
#1047=AXIS2_PLACEMENT_3D('',#1044,#1046,#1045);
#1048=PLANE('',#1047);
#1049=CARTESIAN_POINT('',(8.85,-22.344973989904,-5.5));
#1050=VERTEX_POINT('',#1049);
#1051=CARTESIAN_POINT('',(8.1,-22.344973989904,-5.5));
#1052=DIRECTION('',(1.,1.7530242338245E-31,4.1869132231567E-16));
#1053=DIRECTION('',(4.1869132231567E-16,-4.1869132231567E-16,-1.));
#1054=AXIS2_PLACEMENT_3D('',#1051,#1053,#1052);
#1055=CIRCLE('',#1054,0.75);
#1056=EDGE_CURVE('',#1050,#1050,#1055,.T.);
#1057=ORIENTED_EDGE('E72',*,*,#1056,.T.);
#1058=EDGE_LOOP('',(#1057));
#1059=FACE_OUTER_BOUND('',#1058,.T.);
#1060=ADVANCED_FACE('F29',(#1059),#1048,.T.);
#1061=CARTESIAN_POINT('',(8.1,-22.344973989904,-6.5));
#1062=DIRECTION('',(1.,0.,0.));
#1063=DIRECTION('',(0.,0.,1.));
#1064=AXIS2_PLACEMENT_3D('',#1061,#1063,#1062);
#1065=CYLINDRICAL_SURFACE('',#1064,0.75);
#1066=ORIENTED_EDGE('',*,*,#1056,.F.);
#1067=CARTESIAN_POINT('',(8.85,-22.344973989904,-5.5));
#1068=DIRECTION('',(0.,0.,-1.));
#1069=VECTOR('',#1068,1.);
#1070=LINE('',#1067,#1069);
#1071=EDGE_CURVE('',#1050,#893,#1070,.T.);
#1072=ORIENTED_EDGE('E73',*,*,#1071,.T.);
#1073=ORIENTED_EDGE('E73',*,*,#899,.F.);
#1074=ORIENTED_EDGE('E73',*,*,#1071,.F.);
#1075=EDGE_LOOP('',(#1066,#1072,#1073,#1074));
#1076=FACE_OUTER_BOUND('',#1075,.T.);
#1077=ADVANCED_FACE('F30',(#1076),#1065,.F.);
#1078=CARTESIAN_POINT('',(-8.1,-22.344973989904,-5.5));
#1079=DIRECTION('',(-1.,0.,0.));
#1080=DIRECTION('',(0.,0.,-1.));
#1081=AXIS2_PLACEMENT_3D('',#1078,#1080,#1079);
#1082=PLANE('',#1081);
#1083=CARTESIAN_POINT('',(-8.85,-22.344973989904,-5.5));
#1084=VERTEX_POINT('',#1083);
#1085=CARTESIAN_POINT('',(-7.35,-22.344973989904,-5.5));
#1086=VERTEX_POINT('',#1085);
#1087=CARTESIAN_POINT('',(-8.1,-22.344973989904,-5.5));
#1088=DIRECTION('',(-1.,-9.473903143468E-15,0.));
#1089=DIRECTION('',(-3.5737539777452E-16,3.5737539777452E-16,-1.));
#1090=AXIS2_PLACEMENT_3D('',#1087,#1089,#1088);
#1091=CIRCLE('',#1090,0.75);
#1092=EDGE_CURVE('',#1084,#1086,#1091,.T.);
#1093=ORIENTED_EDGE('E74',*,*,#1092,.T.);
#1094=CARTESIAN_POINT('',(-8.1,-22.344973989904,-5.5));
#1095=DIRECTION('',(1.,0.,1.1842378929335E-15));
#1096=DIRECTION('',(3.5737539777452E-16,3.5737539777452E-16,-1.));
#1097=AXIS2_PLACEMENT_3D('',#1094,#1096,#1095);
#1098=CIRCLE('',#1097,0.75);
#1099=EDGE_CURVE('',#1086,#1084,#1098,.T.);
#1100=ORIENTED_EDGE('E126',*,*,#1099,.T.);
#1101=EDGE_LOOP('',(#1093,#1100));
#1102=FACE_OUTER_BOUND('',#1101,.T.);
#1103=ADVANCED_FACE('F31',(#1102),#1082,.T.);
#1104=CARTESIAN_POINT('',(-8.1,-22.344973989904,-6.5));
#1105=DIRECTION('',(1.,0.,1.1842378929335E-15));
#1106=DIRECTION('',(0.,0.,1.));
#1107=AXIS2_PLACEMENT_3D('',#1104,#1106,#1105);
#1108=CYLINDRICAL_SURFACE('',#1107,0.74999999999999);
#1109=ORIENTED_EDGE('',*,*,#995,.F.);
#1110=CARTESIAN_POINT('',(-7.35,-22.344973989904,-6.5));
#1111=DIRECTION('',(-8.8817841970012E-16,0.,1.));
#1112=VECTOR('',#1111,1.);
#1113=LINE('',#1110,#1112);
#1114=EDGE_CURVE('',#982,#1086,#1113,.T.);
#1115=ORIENTED_EDGE('E75',*,*,#1114,.T.);
#1116=ORIENTED_EDGE('E75',*,*,#1092,.F.);
#1117=ORIENTED_EDGE('E75',*,*,#1099,.F.);
#1118=ORIENTED_EDGE('E75',*,*,#1114,.F.);
#1119=ORIENTED_EDGE('E75',*,*,#988,.F.);
#1120=EDGE_LOOP('',(#1109,#1115,#1116,#1117,#1118,#1119));
#1121=FACE_OUTER_BOUND('',#1120,.T.);
#1122=ADVANCED_FACE('F32',(#1121),#1108,.F.);
#1123=CARTESIAN_POINT('',(12.453364540471,-21.344973989904,16.5));
#1124=DIRECTION('',(0.,0.,-1.));
#1125=DIRECTION('',(0.,-1.,0.));
#1126=AXIS2_PLACEMENT_3D('',#1123,#1125,#1124);
#1127=PLANE('',#1126);
#1128=CARTESIAN_POINT('',(8.1,-21.344973989904,6.5));
#1129=VERTEX_POINT('',#1128);
#1130=CARTESIAN_POINT('',(8.1,-21.344973989904,7.4424458345358));
#1131=DIRECTION('',(0.,0.,-1.));
#1132=VECTOR('',#1131,0.94244583453584);
#1133=LINE('',#1130,#1132);
#1134=EDGE_CURVE('',#212,#1129,#1133,.T.);
#1135=ORIENTED_EDGE('E76',*,*,#1134,.T.);
#1136=CARTESIAN_POINT('',(8.1,-21.344973989904,6.5));
#1137=DIRECTION('',(1.,0.,0.));
#1138=VECTOR('',#1137,0.77411967464942);
#1139=LINE('',#1136,#1138);
#1140=EDGE_CURVE('',#1129,#235,#1139,.T.);
#1141=ORIENTED_EDGE('E77',*,*,#1140,.T.);
#1142=ORIENTED_EDGE('E77',*,*,#241,.F.);
#1143=EDGE_LOOP('',(#1135,#1141,#1142));
#1144=FACE_OUTER_BOUND('',#1143,.T.);
#1145=ADVANCED_FACE('F33',(#1144),#1127,.T.);
#1146=CARTESIAN_POINT('',(8.1000000000001,-22.344973989904,8.4894852851537));
#1147=DIRECTION('',(-1.0441869591205E-09,-1.,0.));
#1148=DIRECTION('',(2.6786177098007E-15,0.,-1.));
#1149=AXIS2_PLACEMENT_3D('',#1146,#1148,#1147);
#1150=CYLINDRICAL_SURFACE('',#1149,1.);
#1151=CARTESIAN_POINT('',(8.1,-23.344973989904,6.5));
#1152=VERTEX_POINT('',#1151);
#1153=CARTESIAN_POINT('',(8.1,-23.344973989904,7.4424458345358));
#1154=DIRECTION('',(0.,0.,-1.));
#1155=VECTOR('',#1154,0.94244583453584);
#1156=LINE('',#1153,#1155);
#1157=EDGE_CURVE('',#210,#1152,#1156,.T.);
#1158=ORIENTED_EDGE('E78',*,*,#1157,.T.);
#1159=CARTESIAN_POINT('',(8.1,-22.344973989904,6.5));
#1160=DIRECTION('',(0.,-1.,0.));
#1161=DIRECTION('',(-2.6803154833089E-16,-2.6803154833089E-16,-1.));
#1162=AXIS2_PLACEMENT_3D('',#1159,#1161,#1160);
#1163=CIRCLE('',#1162,1.);
#1164=EDGE_CURVE('',#1152,#1129,#1163,.T.);
#1165=ORIENTED_EDGE('E79',*,*,#1164,.T.);
#1166=ORIENTED_EDGE('E79',*,*,#1134,.F.);
#1167=ORIENTED_EDGE('E79',*,*,#232,.F.);
#1168=EDGE_LOOP('',(#1158,#1165,#1166,#1167));
#1169=FACE_OUTER_BOUND('',#1168,.T.);
#1170=ADVANCED_FACE('F34',(#1169),#1150,.F.);
#1171=CARTESIAN_POINT('',(8.1,-23.344973989904,16.5));
#1172=DIRECTION('',(-1.,0.,0.));
#1173=DIRECTION('',(0.,1.,-0.));
#1174=AXIS2_PLACEMENT_3D('',#1171,#1173,#1172);
#1175=PLANE('',#1174);
#1176=CARTESIAN_POINT('',(8.8741196746494,-23.344973989904,6.5));
#1177=DIRECTION('',(-1.,0.,0.));
#1178=VECTOR('',#1177,0.77411967464942);
#1179=LINE('',#1176,#1178);
#1180=EDGE_CURVE('',#244,#1152,#1179,.T.);
#1181=ORIENTED_EDGE('E80',*,*,#1180,.T.);
#1182=ORIENTED_EDGE('E80',*,*,#1157,.F.);
#1183=ORIENTED_EDGE('E80',*,*,#256,.F.);
#1184=EDGE_LOOP('',(#1181,#1182,#1183));
#1185=FACE_OUTER_BOUND('',#1184,.T.);
#1186=ADVANCED_FACE('F35',(#1185),#1175,.T.);
#1187=CARTESIAN_POINT('',(12.453364540471,-22.344973989904,6.5));
#1188=DIRECTION('',(1.,0.,0.));
#1189=DIRECTION('',(0.,0.,1.));
#1190=AXIS2_PLACEMENT_3D('',#1187,#1189,#1188);
#1191=PLANE('',#1190);
#1192=ORIENTED_EDGE('',*,*,#249,.F.);
#1193=ORIENTED_EDGE('',*,*,#1140,.F.);
#1194=ORIENTED_EDGE('',*,*,#1164,.F.);
#1195=ORIENTED_EDGE('',*,*,#1180,.F.);
#1196=EDGE_LOOP('',(#1192,#1193,#1194,#1195));
#1197=FACE_OUTER_BOUND('',#1196,.T.);
#1198=CARTESIAN_POINT('',(7.35,-22.344973989904,6.5));
#1199=VERTEX_POINT('',#1198);
#1200=CARTESIAN_POINT('',(8.1,-22.344973989904,6.5));
#1201=DIRECTION('',(-1.,-1.7530242338245E-31,4.1869132231567E-16));
#1202=DIRECTION('',(-4.1869132231567E-16,4.1869132231567E-16,-1.));
#1203=AXIS2_PLACEMENT_3D('',#1200,#1202,#1201);
#1204=CIRCLE('',#1203,0.75);
#1205=EDGE_CURVE('',#1199,#1199,#1204,.T.);
#1206=ORIENTED_EDGE('E81',*,*,#1205,.T.);
#1207=EDGE_LOOP('',(#1206));
#1208=FACE_BOUND('',#1207,.T.);
#1209=ADVANCED_FACE('F36',(#1197,#1208),#1191,.T.);
#1210=CARTESIAN_POINT('',(-8.1,-23.344973989904,16.5));
#1211=DIRECTION('',(-1.,0.,0.));
#1212=DIRECTION('',(0.,1.,-0.));
#1213=AXIS2_PLACEMENT_3D('',#1210,#1212,#1211);
#1214=PLANE('',#1213);
#1215=CARTESIAN_POINT('',(-8.1,-23.344973989904,6.5));
#1216=VERTEX_POINT('',#1215);
#1217=CARTESIAN_POINT('',(-8.1,-23.344973989904,7.4424458345358));
#1218=DIRECTION('',(0.,0.,-1.));
#1219=VECTOR('',#1218,0.94244583453584);
#1220=LINE('',#1217,#1219);
#1221=EDGE_CURVE('',#55,#1216,#1220,.T.);
#1222=ORIENTED_EDGE('E82',*,*,#1221,.T.);
#1223=CARTESIAN_POINT('',(-8.1,-23.344973989904,6.5));
#1224=DIRECTION('',(-1.,0.,0.));
#1225=VECTOR('',#1224,0.77411967464942);
#1226=LINE('',#1223,#1225);
#1227=EDGE_CURVE('',#1216,#80,#1226,.T.);
#1228=ORIENTED_EDGE('E83',*,*,#1227,.T.);
#1229=ORIENTED_EDGE('E83',*,*,#86,.F.);
#1230=EDGE_LOOP('',(#1222,#1228,#1229));
#1231=FACE_OUTER_BOUND('',#1230,.T.);
#1232=ADVANCED_FACE('F37',(#1231),#1214,.T.);
#1233=CARTESIAN_POINT('',(-8.1000000000001,-22.344973989904,8.4677021722891));
#1234=DIRECTION('',(-9.6489862505313E-05,0.99999999534485,-1.7763568394001E-15));
#1235=DIRECTION('',(0.,0.,-1.));
#1236=AXIS2_PLACEMENT_3D('',#1233,#1235,#1234);
#1237=CYLINDRICAL_SURFACE('',#1236,1.0000000000001);
#1238=CARTESIAN_POINT('',(-8.1,-21.344973989904,6.5));
#1239=VERTEX_POINT('',#1238);
#1240=CARTESIAN_POINT('',(-8.1,-21.344973989904,7.4424458345358));
#1241=DIRECTION('',(0.,0.,-1.));
#1242=VECTOR('',#1241,0.94244583453584);
#1243=LINE('',#1240,#1242);
#1244=EDGE_CURVE('',#53,#1239,#1243,.T.);
#1245=ORIENTED_EDGE('E84',*,*,#1244,.T.);
#1246=CARTESIAN_POINT('',(-8.1,-22.344973989904,6.5));
#1247=DIRECTION('',(-1.7763568394003E-15,1.,0.));
#1248=DIRECTION('',(2.6803154833089E-16,2.6803154833089E-16,-1.));
#1249=AXIS2_PLACEMENT_3D('',#1246,#1248,#1247);
#1250=CIRCLE('',#1249,1.);
#1251=EDGE_CURVE('',#1239,#1216,#1250,.T.);
#1252=ORIENTED_EDGE('E85',*,*,#1251,.T.);
#1253=ORIENTED_EDGE('E85',*,*,#1221,.F.);
#1254=ORIENTED_EDGE('E85',*,*,#77,.F.);
#1255=EDGE_LOOP('',(#1245,#1252,#1253,#1254));
#1256=FACE_OUTER_BOUND('',#1255,.T.);
#1257=ADVANCED_FACE('F38',(#1256),#1237,.F.);
#1258=CARTESIAN_POINT('',(-12.453364540471,-21.344973989904,16.5));
#1259=DIRECTION('',(0.,0.,-1.));
#1260=DIRECTION('',(0.,-1.,0.));
#1261=AXIS2_PLACEMENT_3D('',#1258,#1260,#1259);
#1262=PLANE('',#1261);
#1263=CARTESIAN_POINT('',(-8.8741196746494,-21.344973989904,6.5));
#1264=DIRECTION('',(1.,0.,0.));
#1265=VECTOR('',#1264,0.77411967464942);
#1266=LINE('',#1263,#1265);
#1267=EDGE_CURVE('',#89,#1239,#1266,.T.);
#1268=ORIENTED_EDGE('E86',*,*,#1267,.T.);
#1269=ORIENTED_EDGE('E86',*,*,#1244,.F.);
#1270=ORIENTED_EDGE('E86',*,*,#101,.F.);
#1271=EDGE_LOOP('',(#1268,#1269,#1270));
#1272=FACE_OUTER_BOUND('',#1271,.T.);
#1273=ADVANCED_FACE('F39',(#1272),#1262,.T.);
#1274=CARTESIAN_POINT('',(-12.453364540471,-22.344973989904,6.5));
#1275=DIRECTION('',(-1.,0.,0.));
#1276=DIRECTION('',(0.,0.,1.));
#1277=AXIS2_PLACEMENT_3D('',#1274,#1276,#1275);
#1278=PLANE('',#1277);
#1279=ORIENTED_EDGE('',*,*,#1227,.F.);
#1280=ORIENTED_EDGE('',*,*,#1251,.F.);
#1281=ORIENTED_EDGE('',*,*,#1267,.F.);
#1282=ORIENTED_EDGE('',*,*,#94,.F.);
#1283=EDGE_LOOP('',(#1279,#1280,#1281,#1282));
#1284=FACE_OUTER_BOUND('',#1283,.T.);
#1285=CARTESIAN_POINT('',(-7.35,-22.344973989904,6.5));
#1286=VERTEX_POINT('',#1285);
#1287=CARTESIAN_POINT('',(-8.85,-22.344973989904,6.5));
#1288=VERTEX_POINT('',#1287);
#1289=CARTESIAN_POINT('',(-8.1,-22.344973989904,6.5));
#1290=DIRECTION('',(1.,-9.4739031434679E-15,0.));
#1291=DIRECTION('',(7.1475079554905E-16,-7.1475079554905E-16,-1.));
#1292=AXIS2_PLACEMENT_3D('',#1289,#1291,#1290);
#1293=CIRCLE('',#1292,0.75);
#1294=EDGE_CURVE('',#1286,#1288,#1293,.T.);
#1295=ORIENTED_EDGE('E87',*,*,#1294,.T.);
#1296=CARTESIAN_POINT('',(-8.1,-22.344973989904,6.5));
#1297=DIRECTION('',(-1.,-2.8421709430404E-14,0.));
#1298=DIRECTION('',(-7.1475079554905E-16,-7.1475079554905E-16,-1.));
#1299=AXIS2_PLACEMENT_3D('',#1296,#1298,#1297);
#1300=CIRCLE('',#1299,0.75000000000001);
#1301=EDGE_CURVE('',#1288,#1286,#1300,.T.);
#1302=ORIENTED_EDGE('E127',*,*,#1301,.T.);
#1303=EDGE_LOOP('',(#1295,#1302));
#1304=FACE_BOUND('',#1303,.T.);
#1305=ADVANCED_FACE('F40',(#1284,#1304),#1278,.T.);
#1306=CARTESIAN_POINT('',(8.1,-22.344973989904,5.5));
#1307=DIRECTION('',(1.,0.,0.));
#1308=DIRECTION('',(0.,0.,1.));
#1309=AXIS2_PLACEMENT_3D('',#1306,#1308,#1307);
#1310=PLANE('',#1309);
#1311=CARTESIAN_POINT('',(8.85,-22.344973989904,5.5));
#1312=VERTEX_POINT('',#1311);
#1313=CARTESIAN_POINT('',(7.35,-22.344973989904,5.5));
#1314=VERTEX_POINT('',#1313);
#1315=CARTESIAN_POINT('',(8.1,-22.344973989904,5.5));
#1316=DIRECTION('',(1.,-9.473903143468E-15,0.));
#1317=DIRECTION('',(3.5737539777452E-16,3.5737539777452E-16,1.));
#1318=AXIS2_PLACEMENT_3D('',#1315,#1317,#1316);
#1319=CIRCLE('',#1318,0.75);
#1320=EDGE_CURVE('',#1312,#1314,#1319,.T.);
#1321=ORIENTED_EDGE('E88',*,*,#1320,.T.);
#1322=CARTESIAN_POINT('',(8.1,-22.344973989904,5.5));
#1323=DIRECTION('',(-1.,0.,-1.1842378929335E-15));
#1324=DIRECTION('',(-3.5737539777452E-16,3.5737539777452E-16,1.));
#1325=AXIS2_PLACEMENT_3D('',#1322,#1324,#1323);
#1326=CIRCLE('',#1325,0.75);
#1327=EDGE_CURVE('',#1314,#1312,#1326,.T.);
#1328=ORIENTED_EDGE('E128',*,*,#1327,.T.);
#1329=EDGE_LOOP('',(#1321,#1328));
#1330=FACE_OUTER_BOUND('',#1329,.T.);
#1331=ADVANCED_FACE('F41',(#1330),#1310,.T.);
#1332=CARTESIAN_POINT('',(8.1,-22.344973989904,6.5));
#1333=DIRECTION('',(-1.,0.,0.));
#1334=DIRECTION('',(0.,0.,-1.));
#1335=AXIS2_PLACEMENT_3D('',#1332,#1334,#1333);
#1336=CYLINDRICAL_SURFACE('',#1335,0.75);
#1337=ORIENTED_EDGE('',*,*,#1327,.F.);
#1338=CARTESIAN_POINT('',(7.35,-22.344973989904,5.5));
#1339=DIRECTION('',(8.8817841970012E-16,0.,1.));
#1340=VECTOR('',#1339,1.);
#1341=LINE('',#1338,#1340);
#1342=EDGE_CURVE('',#1314,#1199,#1341,.T.);
#1343=ORIENTED_EDGE('E89',*,*,#1342,.T.);
#1344=ORIENTED_EDGE('E89',*,*,#1205,.F.);
#1345=ORIENTED_EDGE('E89',*,*,#1342,.F.);
#1346=ORIENTED_EDGE('E89',*,*,#1320,.F.);
#1347=EDGE_LOOP('',(#1337,#1343,#1344,#1345,#1346));
#1348=FACE_OUTER_BOUND('',#1347,.T.);
#1349=ADVANCED_FACE('F42',(#1348),#1336,.F.);
#1350=CARTESIAN_POINT('',(-8.1,-22.344973989904,5.5));
#1351=DIRECTION('',(-1.,0.,0.));
#1352=DIRECTION('',(0.,0.,1.));
#1353=AXIS2_PLACEMENT_3D('',#1350,#1352,#1351);
#1354=PLANE('',#1353);
#1355=CARTESIAN_POINT('',(-8.85,-22.344973989904,5.5));
#1356=VERTEX_POINT('',#1355);
#1357=CARTESIAN_POINT('',(-8.1,-22.344973989904,5.5));
#1358=DIRECTION('',(-1.,1.7530242338245E-31,-4.1869132231567E-16));
#1359=DIRECTION('',(-4.1869132231567E-16,-4.1869132231567E-16,1.));
#1360=AXIS2_PLACEMENT_3D('',#1357,#1359,#1358);
#1361=CIRCLE('',#1360,0.75);
#1362=EDGE_CURVE('',#1356,#1356,#1361,.T.);
#1363=ORIENTED_EDGE('E90',*,*,#1362,.T.);
#1364=EDGE_LOOP('',(#1363));
#1365=FACE_OUTER_BOUND('',#1364,.T.);
#1366=ADVANCED_FACE('F43',(#1365),#1354,.T.);
#1367=CARTESIAN_POINT('',(-8.1,-22.344973989904,6.5));
#1368=DIRECTION('',(-1.,0.,-1.1842378929335E-15));
#1369=DIRECTION('',(-1.7763568394002E-15,0.,-1.));
#1370=AXIS2_PLACEMENT_3D('',#1367,#1369,#1368);
#1371=CYLINDRICAL_SURFACE('',#1370,0.74999999999999);
#1372=ORIENTED_EDGE('',*,*,#1301,.F.);
#1373=CARTESIAN_POINT('',(-8.85,-22.344973989904,6.5));
#1374=DIRECTION('',(-1.7763568394002E-15,0.,-1.));
#1375=VECTOR('',#1374,1.);
#1376=LINE('',#1373,#1375);
#1377=EDGE_CURVE('',#1288,#1356,#1376,.T.);
#1378=ORIENTED_EDGE('E91',*,*,#1377,.T.);
#1379=ORIENTED_EDGE('E91',*,*,#1362,.F.);
#1380=ORIENTED_EDGE('E91',*,*,#1377,.F.);
#1381=ORIENTED_EDGE('E91',*,*,#1294,.F.);
#1382=EDGE_LOOP('',(#1372,#1378,#1379,#1380,#1381));
#1383=FACE_OUTER_BOUND('',#1382,.T.);
#1384=ADVANCED_FACE('F44',(#1383),#1371,.F.);
#1385=CARTESIAN_POINT('',(-3.7230198825237E-15,-29.194418639958,7.8225893623939E-16));
#1386=DIRECTION('',(3.1297426571014E-16,1.1532410130981E-16,-1.));
#1387=DIRECTION('',(1.5609732834501E-16,1.,1.1532410130981E-16));
#1388=AXIS2_PLACEMENT_3D('',#1385,#1387,#1386);
#1389=TOROIDAL_SURFACE('',#1388,11.7,0.29999999999999);
#1390=ORIENTED_EDGE('',*,*,#343,.F.);
#1391=ORIENTED_EDGE('',*,*,#350,.F.);
#1392=CARTESIAN_POINT('',(0.,-29.194418639958,-11.7));
#1393=DIRECTION('',(0.,-2.3684757858669E-14,-1.));
#1394=DIRECTION('',(-1.,0.,0.));
#1395=AXIS2_PLACEMENT_3D('',#1392,#1394,#1393);
#1396=CIRCLE('',#1395,0.30000000000001);
#1397=EDGE_CURVE('',#337,#369,#1396,.T.);
#1398=ORIENTED_EDGE('E93',*,*,#1397,.T.);
#1399=ORIENTED_EDGE('E93',*,*,#409,.F.);
#1400=ORIENTED_EDGE('E93',*,*,#377,.F.);
#1401=ORIENTED_EDGE('E93',*,*,#1397,.F.);
#1402=EDGE_LOOP('',(#1390,#1391,#1398,#1399,#1400,#1401));
#1403=FACE_OUTER_BOUND('',#1402,.T.);
#1404=ADVANCED_FACE('F45',(#1403),#1389,.T.);
#1405=CARTESIAN_POINT('',(-8.8817841970013E-15,-27.540828801472,-1.7763568394003E-15));
#1406=DIRECTION('',(7.4231242170953E-16,0.,-1.));
#1407=DIRECTION('',(0.,1.,0.));
#1408=AXIS2_PLACEMENT_3D('',#1405,#1407,#1406);
#1409=TOROIDAL_SURFACE('',#1408,11.7,0.29999999999998);
#1410=ORIENTED_EDGE('',*,*,#307,.T.);
#1411=CARTESIAN_POINT('',(0.,-27.540828801472,-11.7));
#1412=DIRECTION('',(0.,0.86602540432608,-0.49999999906184));
#1413=DIRECTION('',(-1.,-0.,0.));
#1414=AXIS2_PLACEMENT_3D('',#1411,#1413,#1412);
#1415=CIRCLE('',#1414,0.29999999999999);
#1416=EDGE_CURVE('',#269,#318,#1415,.T.);
#1417=ORIENTED_EDGE('E96',*,*,#1416,.T.);
#1418=ORIENTED_EDGE('E96',*,*,#358,.F.);
#1419=ORIENTED_EDGE('E96',*,*,#326,.F.);
#1420=ORIENTED_EDGE('E96',*,*,#1416,.F.);
#1421=ORIENTED_EDGE('E96',*,*,#275,.F.);
#1422=EDGE_LOOP('',(#1410,#1417,#1418,#1419,#1420,#1421));
#1423=FACE_OUTER_BOUND('',#1422,.T.);
#1424=ADVANCED_FACE('F46',(#1423),#1409,.T.);
#1425=CARTESIAN_POINT('',(2.2649034741513E-13,-30.118179070661,6.8618150511275E-14));
#1426=DIRECTION('',(-2.0499114500867E-14,-2.4945073564938E-16,1.));
#1427=DIRECTION('',(-3.376448890242E-16,1.,2.4945073564937E-16));
#1428=AXIS2_PLACEMENT_3D('',#1425,#1427,#1426);
#1429=TOROIDAL_SURFACE('',#1428,11.3,0.29999999999999);
#1430=ORIENTED_EDGE('',*,*,#394,.T.);
#1431=CARTESIAN_POINT('',(0.,-30.118179070661,11.3));
#1432=DIRECTION('',(0.,0.86601136075197,-0.50002432245694));
#1433=DIRECTION('',(-1.,-0.,0.));
#1434=AXIS2_PLACEMENT_3D('',#1431,#1433,#1432);
#1435=CIRCLE('',#1434,0.30000000000002);
#1436=EDGE_CURVE('',#380,#429,#1435,.T.);
#1437=ORIENTED_EDGE('E99',*,*,#1436,.T.);
#1438=ORIENTED_EDGE('E99',*,*,#441,.F.);
#1439=ORIENTED_EDGE('E99',*,*,#1436,.F.);
#1440=ORIENTED_EDGE('E99',*,*,#401,.F.);
#1441=EDGE_LOOP('',(#1430,#1437,#1438,#1439,#1440));
#1442=FACE_OUTER_BOUND('',#1441,.T.);
#1443=ADVANCED_FACE('F47',(#1442),#1429,.F.);
#1444=CARTESIAN_POINT('',(2.0516914707175E-13,-32.194418639958,6.2788817845261E-14));
#1445=DIRECTION('',(-1.8568966692589E-14,-2.4725851423717E-16,1.));
#1446=DIRECTION('',(3.3467760029878E-16,1.,2.4725851423718E-16));
#1447=AXIS2_PLACEMENT_3D('',#1444,#1446,#1445);
#1448=TOROIDAL_SURFACE('',#1447,11.3,0.29999999999999);
#1449=ORIENTED_EDGE('',*,*,#426,.F.);
#1450=CARTESIAN_POINT('',(0.,-32.194418639958,11.3));
#1451=DIRECTION('',(0.,0.,-1.));
#1452=DIRECTION('',(-1.,0.,0.));
#1453=AXIS2_PLACEMENT_3D('',#1450,#1452,#1451);
#1454=CIRCLE('',#1453,0.30000000000001);
#1455=EDGE_CURVE('',#420,#472,#1454,.T.);
#1456=ORIENTED_EDGE('E100',*,*,#1455,.T.);
#1457=ORIENTED_EDGE('E100',*,*,#478,.F.);
#1458=ORIENTED_EDGE('E100',*,*,#485,.F.);
#1459=ORIENTED_EDGE('E100',*,*,#1455,.F.);
#1460=EDGE_LOOP('',(#1449,#1456,#1457,#1458,#1459));
#1461=FACE_OUTER_BOUND('',#1460,.T.);
#1462=ADVANCED_FACE('F48',(#1461),#1448,.F.);
#1463=CARTESIAN_POINT('',(8.5265128291212E-14,-34.644973989904,3.6071841694832E-14));
#1464=DIRECTION('',(-7.152217829292E-15,-4.6556096745397E-16,-1.));
#1465=DIRECTION('',(-3.6672332033083E-32,1.,-4.6556096745397E-16));
#1466=AXIS2_PLACEMENT_3D('',#1463,#1465,#1464);
#1467=TOROIDAL_SURFACE('',#1466,11.7,0.30000000000001);
#1468=ORIENTED_EDGE('',*,*,#529,.F.);
#1469=ORIENTED_EDGE('',*,*,#536,.F.);
#1470=CARTESIAN_POINT('',(0.,-34.644973989904,-11.7));
#1471=DIRECTION('',(0.,2.3684757858671E-14,-1.));
#1472=DIRECTION('',(-1.,0.,0.));
#1473=AXIS2_PLACEMENT_3D('',#1470,#1472,#1471);
#1474=CIRCLE('',#1473,0.29999999999999);
#1475=EDGE_CURVE('',#523,#555,#1474,.T.);
#1476=ORIENTED_EDGE('E103',*,*,#1475,.T.);
#1477=ORIENTED_EDGE('E103',*,*,#561,.F.);
#1478=ORIENTED_EDGE('E103',*,*,#1475,.F.);
#1479=EDGE_LOOP('',(#1468,#1469,#1476,#1477,#1478));
#1480=FACE_OUTER_BOUND('',#1479,.T.);
#1481=ADVANCED_FACE('F49',(#1480),#1467,.T.);
#1482=CARTESIAN_POINT('',(-3.7303493627405E-14,-33.118179070661,-1.2332717318167E-14));
#1483=DIRECTION('',(3.11771217118E-15,4.5784516040706E-16,-1.));
#1484=DIRECTION('',(3.5466853405917E-32,1.,4.5784516040706E-16));
#1485=AXIS2_PLACEMENT_3D('',#1482,#1484,#1483);
#1486=TOROIDAL_SURFACE('',#1485,11.7,0.29999999999998);
#1487=ORIENTED_EDGE('',*,*,#493,.T.);
#1488=CARTESIAN_POINT('',(0.,-33.118179070661,-11.7));
#1489=DIRECTION('',(0.,0.86602540432609,-0.49999999906183));
#1490=DIRECTION('',(-1.,-0.,0.));
#1491=AXIS2_PLACEMENT_3D('',#1488,#1490,#1489);
#1492=CIRCLE('',#1491,0.29999999999999);
#1493=EDGE_CURVE('',#455,#504,#1492,.T.);
#1494=ORIENTED_EDGE('E105',*,*,#1493,.T.);
#1495=ORIENTED_EDGE('E105',*,*,#544,.F.);
#1496=ORIENTED_EDGE('E105',*,*,#512,.F.);
#1497=ORIENTED_EDGE('E105',*,*,#1493,.F.);
#1498=ORIENTED_EDGE('E105',*,*,#461,.F.);
#1499=EDGE_LOOP('',(#1487,#1494,#1495,#1496,#1497,#1498));
#1500=FACE_OUTER_BOUND('',#1499,.T.);
#1501=ADVANCED_FACE('F50',(#1500),#1486,.T.);
#1502=CARTESIAN_POINT('',(-3.0730973321624E-13,-26.617068370768,-8.953378113331E-14));
#1503=DIRECTION('',(2.7820522263984E-14,-2.4725851423717E-16,1.));
#1504=DIRECTION('',(-8.275188619834E-32,1.,2.4725851423717E-16));
#1505=AXIS2_PLACEMENT_3D('',#1502,#1504,#1503);
#1506=TOROIDAL_SURFACE('',#1505,11.3,0.29999999999999);
#1507=ORIENTED_EDGE('',*,*,#47,.F.);
#1508=CARTESIAN_POINT('',(0.,-26.617068370768,11.3));
#1509=DIRECTION('',(0.,-2.368475785867E-14,-1.));
#1510=DIRECTION('',(-1.,0.,0.));
#1511=AXIS2_PLACEMENT_3D('',#1508,#1510,#1509);
#1512=CIRCLE('',#1511,0.3);
#1513=EDGE_CURVE('',#35,#286,#1512,.T.);
#1514=ORIENTED_EDGE('E107',*,*,#1513,.T.);
#1515=ORIENTED_EDGE('E107',*,*,#292,.F.);
#1516=ORIENTED_EDGE('E107',*,*,#299,.F.);
#1517=ORIENTED_EDGE('E107',*,*,#1513,.F.);
#1518=EDGE_LOOP('',(#1507,#1514,#1515,#1516,#1517));
#1519=FACE_OUTER_BOUND('',#1518,.T.);
#1520=ADVANCED_FACE('F51',(#1519),#1506,.F.);
#1521=CLOSED_SHELL('',(#260,#311,#362,#413,#446,#497,#548,#576,#601,#621,#646,#671,#696,#721,#746,#774,#807,#824,#842,#860,#903,#919,#936,#947,#999,#1015,#1032,#1043,#1060,#1077,#1103,#1122,#1145,#1170,#1186,#1209,#1232,#1257,#1273,#1305,#1331,#1349,#1366,#1384,#1404,#1424,#1443,#1462,#1481,#1501,#1520));
#1522=COLOUR_RGB('',0.745098,0.901961,0.960784);
#1523=FILL_AREA_STYLE_COLOUR('',#1522);
#1524=FILL_AREA_STYLE('',(#1523));
#1525=SURFACE_STYLE_FILL_AREA(#1524);
#1526=SURFACE_SIDE_STYLE('',(#1525));
#1527=SURFACE_STYLE_USAGE(.BOTH.,#1526);
#1528=PRESENTATION_STYLE_ASSIGNMENT((#1527));
#1529=OVER_RIDING_STYLED_ITEM('',(#1528),#260,#1521);
#1530=OVER_RIDING_STYLED_ITEM('',(#1528),#311,#1521);
#1531=OVER_RIDING_STYLED_ITEM('',(#1528),#362,#1521);
#1532=OVER_RIDING_STYLED_ITEM('',(#1528),#413,#1521);
#1533=OVER_RIDING_STYLED_ITEM('',(#1528),#446,#1521);
#1534=OVER_RIDING_STYLED_ITEM('',(#1528),#497,#1521);
#1535=OVER_RIDING_STYLED_ITEM('',(#1528),#548,#1521);
#1536=OVER_RIDING_STYLED_ITEM('',(#1528),#576,#1521);
#1537=OVER_RIDING_STYLED_ITEM('',(#1528),#601,#1521);
#1538=OVER_RIDING_STYLED_ITEM('',(#1528),#621,#1521);
#1539=OVER_RIDING_STYLED_ITEM('',(#1528),#646,#1521);
#1540=OVER_RIDING_STYLED_ITEM('',(#1528),#671,#1521);
#1541=OVER_RIDING_STYLED_ITEM('',(#1528),#696,#1521);
#1542=OVER_RIDING_STYLED_ITEM('',(#1528),#721,#1521);
#1543=OVER_RIDING_STYLED_ITEM('',(#1528),#746,#1521);
#1544=OVER_RIDING_STYLED_ITEM('',(#1528),#774,#1521);
#1545=OVER_RIDING_STYLED_ITEM('',(#1528),#807,#1521);
#1546=OVER_RIDING_STYLED_ITEM('',(#1528),#824,#1521);
#1547=OVER_RIDING_STYLED_ITEM('',(#1528),#842,#1521);
#1548=OVER_RIDING_STYLED_ITEM('',(#1528),#860,#1521);
#1549=OVER_RIDING_STYLED_ITEM('',(#1528),#903,#1521);
#1550=OVER_RIDING_STYLED_ITEM('',(#1528),#919,#1521);
#1551=OVER_RIDING_STYLED_ITEM('',(#1528),#936,#1521);
#1552=OVER_RIDING_STYLED_ITEM('',(#1528),#947,#1521);
#1553=OVER_RIDING_STYLED_ITEM('',(#1528),#999,#1521);
#1554=OVER_RIDING_STYLED_ITEM('',(#1528),#1015,#1521);
#1555=OVER_RIDING_STYLED_ITEM('',(#1528),#1032,#1521);
#1556=OVER_RIDING_STYLED_ITEM('',(#1528),#1043,#1521);
#1557=OVER_RIDING_STYLED_ITEM('',(#1528),#1060,#1521);
#1558=OVER_RIDING_STYLED_ITEM('',(#1528),#1077,#1521);
#1559=OVER_RIDING_STYLED_ITEM('',(#1528),#1103,#1521);
#1560=OVER_RIDING_STYLED_ITEM('',(#1528),#1122,#1521);
#1561=OVER_RIDING_STYLED_ITEM('',(#1528),#1145,#1521);
#1562=OVER_RIDING_STYLED_ITEM('',(#1528),#1170,#1521);
#1563=OVER_RIDING_STYLED_ITEM('',(#1528),#1186,#1521);
#1564=OVER_RIDING_STYLED_ITEM('',(#1528),#1209,#1521);
#1565=OVER_RIDING_STYLED_ITEM('',(#1528),#1232,#1521);
#1566=OVER_RIDING_STYLED_ITEM('',(#1528),#1257,#1521);
#1567=OVER_RIDING_STYLED_ITEM('',(#1528),#1273,#1521);
#1568=OVER_RIDING_STYLED_ITEM('',(#1528),#1305,#1521);
#1569=OVER_RIDING_STYLED_ITEM('',(#1528),#1331,#1521);
#1570=OVER_RIDING_STYLED_ITEM('',(#1528),#1349,#1521);
#1571=OVER_RIDING_STYLED_ITEM('',(#1528),#1366,#1521);
#1572=OVER_RIDING_STYLED_ITEM('',(#1528),#1384,#1521);
#1573=OVER_RIDING_STYLED_ITEM('',(#1528),#1404,#1521);
#1574=OVER_RIDING_STYLED_ITEM('',(#1528),#1424,#1521);
#1575=OVER_RIDING_STYLED_ITEM('',(#1528),#1443,#1521);
#1576=OVER_RIDING_STYLED_ITEM('',(#1528),#1462,#1521);
#1577=OVER_RIDING_STYLED_ITEM('',(#1528),#1481,#1521);
#1578=OVER_RIDING_STYLED_ITEM('',(#1528),#1501,#1521);
#1579=OVER_RIDING_STYLED_ITEM('',(#1528),#1520,#1521);
#1580=MANIFOLD_SOLID_BREP('‘≤Ω«1',#1521);
#1581=ADVANCED_BREP_SHAPE_REPRESENTATION('none',(#1580),#5);
#1582=SHAPE_REPRESENTATION_RELATIONSHIP('none','generic',#18,#1581);
#1583=PRESENTATION_LAYER_ASSIGNMENT('Õº≤„0000','',(#1580));
#1584=MECHANICAL_DESIGN_GEOMETRIC_PRESENTATION_REPRESENTATION('',(#1529,#1530,#1531,#1532,#1533,#1534,#1535,#1536,#1537,#1538,#1539,#1540,#1541,#1542,#1543,#1544,#1545,#1546,#1547,#1548,#1549,#1550,#1551,#1552,#1553,#1554,#1555,#1556,#1557,#1558,#1559,#1560,#1561,#1562,#1563,#1564,#1565,#1566,#1567,#1568,#1569,#1570,#1571,#1572,#1573,#1574,#1575,#1576,#1577,#1578,#1579),#5);
ENDSEC;
END-ISO-10303-21;
